<svg width="1627" height="786" viewBox="0 0 1627 786" fill="none" xmlns="http://www.w3.org/2000/svg">
<rect width="1627" height="786" fill="white"/>
<path d="M78.6612 338.276C78.5476 337.13 78.0599 336.24 77.1982 335.605C76.3364 334.971 75.1669 334.653 73.6896 334.653C72.6858 334.653 71.8383 334.795 71.147 335.08C70.4557 335.354 69.9254 335.738 69.5561 336.23C69.1963 336.723 69.0163 337.281 69.0163 337.906C68.9974 338.427 69.1063 338.882 69.343 339.27C69.5893 339.658 69.9254 339.994 70.3516 340.278C70.7777 340.553 71.2701 340.795 71.8288 341.003C72.3875 341.202 72.9841 341.372 73.6186 341.514L76.2322 342.139C77.5012 342.423 78.666 342.802 79.7266 343.276C80.7872 343.749 81.7057 344.331 82.4822 345.023C83.2588 345.714 83.8601 346.528 84.2862 347.466C84.7218 348.403 84.9444 349.478 84.9538 350.69C84.9444 352.471 84.4898 354.014 83.5902 355.321C82.7 356.618 81.4122 357.627 79.7266 358.347C78.0504 359.057 76.0286 359.412 73.6612 359.412C71.3127 359.412 69.2673 359.052 67.5249 358.332C65.7919 357.613 64.4377 356.547 63.4624 355.136C62.4964 353.716 61.9898 351.959 61.9425 349.866H67.8942C67.9605 350.842 68.2398 351.656 68.7322 352.31C69.2341 352.954 69.9018 353.441 70.7351 353.773C71.5779 354.095 72.5296 354.256 73.5902 354.256C74.6319 354.256 75.5362 354.104 76.3033 353.801C77.0798 353.498 77.6811 353.077 78.1072 352.537C78.5334 351.997 78.7464 351.377 78.7464 350.676C78.7464 350.023 78.5523 349.473 78.1641 349.028C77.7853 348.583 77.2266 348.205 76.4879 347.892C75.7588 347.58 74.8639 347.295 73.8033 347.04L70.6357 346.244C68.183 345.648 66.2464 344.715 64.826 343.446C63.4055 342.177 62.7 340.468 62.7095 338.318C62.7 336.557 63.1688 335.018 64.1158 333.702C65.0722 332.385 66.3838 331.358 68.0504 330.619C69.7171 329.881 71.611 329.511 73.7322 329.511C75.8913 329.511 77.7758 329.881 79.3857 330.619C81.005 331.358 82.2644 332.385 83.1641 333.702C84.0637 335.018 84.5277 336.543 84.5561 338.276H78.6612ZM88.9773 367.182V337.182H94.9432V340.847H95.2131C95.4782 340.259 95.8617 339.663 96.3636 339.057C96.875 338.441 97.5379 337.93 98.3523 337.523C99.1761 337.106 100.199 336.898 101.42 336.898C103.011 336.898 104.479 337.314 105.824 338.148C107.169 338.972 108.243 340.217 109.048 341.884C109.853 343.541 110.256 345.619 110.256 348.119C110.256 350.553 109.863 352.608 109.077 354.284C108.3 355.951 107.24 357.215 105.895 358.077C104.56 358.929 103.063 359.355 101.406 359.355C100.232 359.355 99.233 359.161 98.4091 358.773C97.5947 358.384 96.9271 357.897 96.4062 357.31C95.8854 356.713 95.4877 356.112 95.2131 355.506H95.0284V367.182H88.9773ZM94.9006 348.091C94.9006 349.388 95.0805 350.52 95.4403 351.486C95.8002 352.452 96.321 353.205 97.0028 353.744C97.6847 354.275 98.5133 354.54 99.4886 354.54C100.473 354.54 101.307 354.27 101.989 353.73C102.67 353.181 103.187 352.423 103.537 351.457C103.897 350.482 104.077 349.36 104.077 348.091C104.077 346.831 103.902 345.723 103.551 344.767C103.201 343.811 102.685 343.062 102.003 342.523C101.321 341.983 100.483 341.713 99.4886 341.713C98.5038 341.713 97.6705 341.973 96.9886 342.494C96.3163 343.015 95.8002 343.754 95.4403 344.71C95.0805 345.667 94.9006 346.794 94.9006 348.091ZM114.29 359V337.182H120.156V340.989H120.384C120.781 339.634 121.449 338.612 122.386 337.92C123.324 337.22 124.403 336.869 125.625 336.869C125.928 336.869 126.255 336.888 126.605 336.926C126.955 336.964 127.263 337.016 127.528 337.082V342.452C127.244 342.366 126.851 342.291 126.349 342.224C125.848 342.158 125.388 342.125 124.972 342.125C124.081 342.125 123.286 342.319 122.585 342.707C121.894 343.086 121.345 343.616 120.938 344.298C120.54 344.98 120.341 345.766 120.341 346.656V359H114.29ZM130.657 359V337.182H136.708V359H130.657ZM133.697 334.369C132.797 334.369 132.025 334.071 131.381 333.474C130.747 332.868 130.43 332.144 130.43 331.301C130.43 330.468 130.747 329.753 131.381 329.156C132.025 328.55 132.797 328.247 133.697 328.247C134.596 328.247 135.363 328.55 135.998 329.156C136.642 329.753 136.964 330.468 136.964 331.301C136.964 332.144 136.642 332.868 135.998 333.474C135.363 334.071 134.596 334.369 133.697 334.369ZM147.607 346.386V359H141.555V337.182H147.322V341.031H147.578C148.061 339.762 148.871 338.759 150.007 338.02C151.143 337.272 152.521 336.898 154.141 336.898C155.656 336.898 156.977 337.229 158.104 337.892C159.231 338.555 160.107 339.502 160.732 340.733C161.357 341.955 161.669 343.413 161.669 345.108V359H155.618V346.188C155.627 344.852 155.286 343.811 154.595 343.062C153.904 342.305 152.952 341.926 151.74 341.926C150.926 341.926 150.206 342.101 149.581 342.452C148.965 342.802 148.482 343.313 148.132 343.986C147.791 344.649 147.616 345.449 147.607 346.386ZM176.268 367.636C174.308 367.636 172.627 367.366 171.225 366.827C169.833 366.296 168.725 365.572 167.901 364.653C167.077 363.735 166.542 362.703 166.296 361.557L171.893 360.804C172.063 361.24 172.333 361.647 172.702 362.026C173.072 362.404 173.559 362.707 174.165 362.935C174.781 363.171 175.529 363.29 176.41 363.29C177.726 363.29 178.81 362.968 179.663 362.324C180.524 361.689 180.955 360.624 180.955 359.128V355.136H180.7C180.434 355.742 180.037 356.315 179.506 356.855C178.976 357.395 178.294 357.835 177.461 358.176C176.628 358.517 175.633 358.688 174.478 358.688C172.84 358.688 171.348 358.309 170.004 357.551C168.668 356.784 167.603 355.615 166.808 354.043C166.022 352.461 165.629 350.463 165.629 348.048C165.629 345.577 166.031 343.512 166.836 341.855C167.641 340.198 168.711 338.957 170.046 338.134C171.391 337.31 172.863 336.898 174.464 336.898C175.685 336.898 176.708 337.106 177.532 337.523C178.356 337.93 179.019 338.441 179.521 339.057C180.032 339.663 180.425 340.259 180.7 340.847H180.927V337.182H186.935V359.213C186.935 361.069 186.481 362.622 185.572 363.872C184.663 365.122 183.403 366.06 181.793 366.685C180.193 367.319 178.351 367.636 176.268 367.636ZM176.396 354.142C177.371 354.142 178.195 353.901 178.867 353.418C179.549 352.925 180.07 352.224 180.43 351.315C180.799 350.397 180.984 349.298 180.984 348.02C180.984 346.741 180.804 345.634 180.444 344.696C180.084 343.749 179.563 343.015 178.881 342.494C178.2 341.973 177.371 341.713 176.396 341.713C175.401 341.713 174.563 341.983 173.881 342.523C173.2 343.053 172.683 343.792 172.333 344.739C171.983 345.686 171.808 346.779 171.808 348.02C171.808 349.279 171.983 350.368 172.333 351.287C172.693 352.196 173.209 352.902 173.881 353.403C174.563 353.896 175.401 354.142 176.396 354.142ZM201.122 359V329.909H212.77C214.91 329.909 216.695 330.226 218.125 330.861C219.555 331.495 220.63 332.376 221.349 333.503C222.069 334.62 222.429 335.908 222.429 337.366C222.429 338.503 222.202 339.502 221.747 340.364C221.293 341.216 220.668 341.917 219.872 342.466C219.086 343.006 218.187 343.389 217.173 343.616V343.901C218.281 343.948 219.318 344.26 220.284 344.838C221.259 345.416 222.05 346.225 222.656 347.267C223.262 348.299 223.565 349.53 223.565 350.96C223.565 352.504 223.182 353.882 222.415 355.094C221.657 356.296 220.535 357.248 219.048 357.949C217.562 358.65 215.729 359 213.551 359H201.122ZM207.273 353.972H212.287C214.001 353.972 215.251 353.645 216.037 352.991C216.823 352.329 217.216 351.448 217.216 350.349C217.216 349.545 217.022 348.834 216.634 348.219C216.245 347.603 215.691 347.12 214.972 346.77C214.261 346.42 213.414 346.244 212.429 346.244H207.273V353.972ZM207.273 342.082H211.832C212.675 342.082 213.423 341.936 214.077 341.642C214.74 341.339 215.26 340.913 215.639 340.364C216.027 339.814 216.222 339.156 216.222 338.389C216.222 337.338 215.848 336.491 215.099 335.847C214.361 335.203 213.31 334.881 211.946 334.881H207.273V342.082ZM237.312 359.426C235.105 359.426 233.197 358.957 231.587 358.02C229.987 357.073 228.751 355.757 227.88 354.071C227.009 352.376 226.573 350.411 226.573 348.176C226.573 345.922 227.009 343.953 227.88 342.267C228.751 340.572 229.987 339.256 231.587 338.318C233.197 337.371 235.105 336.898 237.312 336.898C239.518 336.898 241.422 337.371 243.022 338.318C244.632 339.256 245.872 340.572 246.744 342.267C247.615 343.953 248.05 345.922 248.05 348.176C248.05 350.411 247.615 352.376 246.744 354.071C245.872 355.757 244.632 357.073 243.022 358.02C241.422 358.957 239.518 359.426 237.312 359.426ZM237.34 354.739C238.344 354.739 239.182 354.455 239.854 353.886C240.527 353.309 241.033 352.523 241.374 351.528C241.725 350.534 241.9 349.402 241.9 348.134C241.9 346.865 241.725 345.733 241.374 344.739C241.033 343.744 240.527 342.958 239.854 342.381C239.182 341.803 238.344 341.514 237.34 341.514C236.327 341.514 235.475 341.803 234.783 342.381C234.102 342.958 233.585 343.744 233.235 344.739C232.894 345.733 232.724 346.865 232.724 348.134C232.724 349.402 232.894 350.534 233.235 351.528C233.585 352.523 234.102 353.309 234.783 353.886C235.475 354.455 236.327 354.739 237.34 354.739ZM261.843 359.426C259.637 359.426 257.728 358.957 256.119 358.02C254.518 357.073 253.282 355.757 252.411 354.071C251.54 352.376 251.104 350.411 251.104 348.176C251.104 345.922 251.54 343.953 252.411 342.267C253.282 340.572 254.518 339.256 256.119 338.318C257.728 337.371 259.637 336.898 261.843 336.898C264.049 336.898 265.953 337.371 267.553 338.318C269.163 339.256 270.404 340.572 271.275 342.267C272.146 343.953 272.582 345.922 272.582 348.176C272.582 350.411 272.146 352.376 271.275 354.071C270.404 355.757 269.163 357.073 267.553 358.02C265.953 358.957 264.049 359.426 261.843 359.426ZM261.871 354.739C262.875 354.739 263.713 354.455 264.386 353.886C265.058 353.309 265.565 352.523 265.906 351.528C266.256 350.534 266.431 349.402 266.431 348.134C266.431 346.865 266.256 345.733 265.906 344.739C265.565 343.744 265.058 342.958 264.386 342.381C263.713 341.803 262.875 341.514 261.871 341.514C260.858 341.514 260.006 341.803 259.315 342.381C258.633 342.958 258.117 343.744 257.766 344.739C257.425 345.733 257.255 346.865 257.255 348.134C257.255 349.402 257.425 350.534 257.766 351.528C258.117 352.523 258.633 353.309 259.315 353.886C260.006 354.455 260.858 354.739 261.871 354.739ZM288.121 337.182V341.727H274.982V337.182H288.121ZM277.965 331.955H284.016V352.295C284.016 352.854 284.102 353.29 284.272 353.602C284.442 353.905 284.679 354.118 284.982 354.241C285.295 354.365 285.655 354.426 286.062 354.426C286.346 354.426 286.63 354.402 286.914 354.355C287.198 354.298 287.416 354.256 287.567 354.227L288.519 358.73C288.216 358.825 287.79 358.934 287.241 359.057C286.692 359.189 286.024 359.27 285.238 359.298C283.78 359.355 282.501 359.161 281.403 358.716C280.314 358.271 279.466 357.58 278.86 356.642C278.254 355.705 277.956 354.521 277.965 353.091V331.955Z" fill="#8BC34A"/>
<g clip-path="url(#clip0_406_52)">
<path d="M298.896 173.34C299.324 147.045 293.372 115.777 280.971 79.0901L271.249 50.3209L258.042 77.677C257.335 79.1395 256.529 80.5712 255.686 81.9844C233.991 63.4466 205.841 52.1722 175 52.1722C106.51 52.1722 50.9921 107.427 50.9921 175.592C50.9921 243.757 106.51 299.013 175 299.013C243.49 299.013 299.008 243.757 299.008 175.592C299.008 174.833 298.909 174.099 298.896 173.34Z" fill="#8BC34A"/>
<path d="M270.393 228.404C251.029 254.952 216.753 256.377 184.493 255.816H142.448H130.432C157.887 245.985 174.225 243.646 190.91 234.834C222.334 218.388 253.398 182.405 259.865 144.972C247.898 180.986 211.632 211.927 178.584 224.51C155.94 233.106 115.042 241.449 115.042 241.449L113.387 240.555C85.5469 226.614 84.7036 164.571 135.317 144.54C157.478 135.759 178.677 140.584 202.617 134.709C228.175 128.464 257.738 108.742 269.767 83.0273C283.234 124.169 299.442 188.589 270.393 228.404ZM123.338 264.733C121.59 266.893 118.917 268.158 116.127 268.158C111.024 268.158 106.858 263.98 106.858 258.901C106.858 253.822 111.055 249.645 116.127 249.645C118.242 249.645 120.325 250.373 121.962 251.718C125.93 254.921 126.55 260.783 123.338 264.733Z" fill="white"/>
</g>
<path d="M458.958 359H448.646V329.909H459.043C461.969 329.909 464.488 330.491 466.6 331.656C468.712 332.812 470.336 334.473 471.472 336.642C472.618 338.811 473.191 341.405 473.191 344.426C473.191 347.456 472.618 350.061 471.472 352.239C470.336 354.417 468.702 356.088 466.572 357.253C464.451 358.418 461.913 359 458.958 359ZM454.796 353.73H458.702C460.521 353.73 462.05 353.408 463.29 352.764C464.54 352.111 465.478 351.102 466.103 349.739C466.737 348.366 467.055 346.595 467.055 344.426C467.055 342.277 466.737 340.52 466.103 339.156C465.478 337.793 464.545 336.789 463.305 336.145C462.064 335.501 460.535 335.179 458.717 335.179H454.796V353.73ZM487.491 359.426C485.285 359.426 483.377 358.957 481.767 358.02C480.167 357.073 478.931 355.757 478.06 354.071C477.188 352.376 476.753 350.411 476.753 348.176C476.753 345.922 477.188 343.953 478.06 342.267C478.931 340.572 480.167 339.256 481.767 338.318C483.377 337.371 485.285 336.898 487.491 336.898C489.698 336.898 491.601 337.371 493.202 338.318C494.812 339.256 496.052 340.572 496.923 342.267C497.795 343.953 498.23 345.922 498.23 348.176C498.23 350.411 497.795 352.376 496.923 354.071C496.052 355.757 494.812 357.073 493.202 358.02C491.601 358.957 489.698 359.426 487.491 359.426ZM487.52 354.739C488.524 354.739 489.362 354.455 490.034 353.886C490.706 353.309 491.213 352.523 491.554 351.528C491.904 350.534 492.08 349.402 492.08 348.134C492.08 346.865 491.904 345.733 491.554 344.739C491.213 343.744 490.706 342.958 490.034 342.381C489.362 341.803 488.524 341.514 487.52 341.514C486.507 341.514 485.654 341.803 484.963 342.381C484.281 342.958 483.765 343.744 483.415 344.739C483.074 345.733 482.903 346.865 482.903 348.134C482.903 349.402 483.074 350.534 483.415 351.528C483.765 352.523 484.281 353.309 484.963 353.886C485.654 354.455 486.507 354.739 487.52 354.739ZM512.023 359.426C509.788 359.426 507.866 358.953 506.256 358.006C504.655 357.049 503.424 355.723 502.562 354.028C501.71 352.333 501.284 350.383 501.284 348.176C501.284 345.941 501.715 343.981 502.577 342.295C503.448 340.6 504.684 339.279 506.284 338.332C507.884 337.376 509.788 336.898 511.994 336.898C513.898 336.898 515.564 337.243 516.994 337.935C518.424 338.626 519.556 339.597 520.389 340.847C521.223 342.097 521.682 343.564 521.767 345.25H516.057C515.896 344.161 515.47 343.285 514.778 342.622C514.097 341.95 513.202 341.614 512.094 341.614C511.156 341.614 510.337 341.869 509.636 342.381C508.945 342.883 508.405 343.616 508.017 344.582C507.629 345.548 507.435 346.718 507.435 348.091C507.435 349.483 507.624 350.667 508.003 351.642C508.391 352.617 508.936 353.361 509.636 353.872C510.337 354.384 511.156 354.639 512.094 354.639C512.785 354.639 513.405 354.497 513.955 354.213C514.513 353.929 514.973 353.517 515.332 352.977C515.702 352.428 515.943 351.77 516.057 351.003H521.767C521.672 352.67 521.218 354.137 520.403 355.406C519.598 356.666 518.486 357.651 517.065 358.361C515.645 359.071 513.964 359.426 512.023 359.426ZM531.124 352.722L531.138 345.463H532.019L539.008 337.182H545.954L536.565 348.148H535.13L531.124 352.722ZM525.641 359V329.909H531.692V359H525.641ZM539.278 359L532.857 349.497L536.891 345.222L546.366 359H539.278ZM557.967 359.426C555.723 359.426 553.791 358.972 552.172 358.062C550.562 357.144 549.321 355.847 548.45 354.17C547.579 352.485 547.143 350.491 547.143 348.19C547.143 345.946 547.579 343.976 548.45 342.281C549.321 340.586 550.548 339.265 552.129 338.318C553.72 337.371 555.586 336.898 557.726 336.898C559.165 336.898 560.505 337.13 561.746 337.594C562.996 338.048 564.085 338.735 565.013 339.653C565.95 340.572 566.679 341.727 567.2 343.119C567.721 344.502 567.982 346.121 567.982 347.977V349.639H549.558V345.889H562.286C562.286 345.018 562.096 344.246 561.717 343.574C561.339 342.902 560.813 342.376 560.141 341.997C559.478 341.609 558.706 341.415 557.825 341.415C556.907 341.415 556.092 341.628 555.382 342.054C554.681 342.471 554.132 343.034 553.734 343.744C553.337 344.445 553.133 345.226 553.124 346.088V349.653C553.124 350.733 553.322 351.666 553.72 352.452C554.127 353.238 554.7 353.844 555.439 354.27C556.178 354.696 557.054 354.909 558.067 354.909C558.739 354.909 559.355 354.814 559.913 354.625C560.472 354.436 560.95 354.152 561.348 353.773C561.746 353.394 562.049 352.93 562.257 352.381L567.854 352.75C567.57 354.095 566.987 355.269 566.107 356.273C565.235 357.267 564.108 358.044 562.726 358.602C561.353 359.152 559.767 359.426 557.967 359.426ZM571.93 359V337.182H577.797V340.989H578.024C578.422 339.634 579.089 338.612 580.027 337.92C580.964 337.22 582.044 336.869 583.266 336.869C583.569 336.869 583.895 336.888 584.246 336.926C584.596 336.964 584.904 337.016 585.169 337.082V342.452C584.885 342.366 584.492 342.291 583.99 342.224C583.488 342.158 583.029 342.125 582.612 342.125C581.722 342.125 580.927 342.319 580.226 342.707C579.535 343.086 578.985 343.616 578.578 344.298C578.18 344.98 577.982 345.766 577.982 346.656V359H571.93Z" fill="#03A9F4"/>
<path d="M654.14 139.172C657.253 125.358 653.408 109.076 634.236 91.4013C603.073 119.61 611.983 148.941 622.293 163.057C622.293 163.057 620.971 171.019 590.446 171.019C559.92 171.019 351.592 171.019 351.592 171.019C351.592 171.019 336.998 298.408 478.981 298.408C603.129 298.408 638.002 202.842 644.809 178.376C647.627 178.758 650.788 179.005 654.14 178.981C671.234 178.846 693.392 169.658 701.911 135.318C679.315 127.492 664.801 131.035 654.14 139.172Z" fill="#03A9F4"/>
<path d="M352.906 202.866C358.758 240.597 383.304 298.408 478.981 298.408C575.995 298.408 618.495 240.048 635.685 202.866H352.906Z" fill="#0288D1"/>
<path d="M493.408 297.914C486.083 295.35 453.025 289.236 447.134 242.675C413.623 257.508 383.933 253.623 370.868 250.701C388.081 276.409 419.992 298.408 478.981 298.408C483.941 298.408 488.726 298.217 493.408 297.914Z" fill="#81D4FA"/>
<path d="M478.981 218.79C474.758 218.79 470.707 220.467 467.721 223.454C464.735 226.44 463.057 230.49 463.057 234.713C463.057 238.937 464.735 242.987 467.721 245.973C470.707 248.959 474.758 250.637 478.981 250.637C483.204 250.637 487.254 248.959 490.241 245.973C493.227 242.987 494.904 238.937 494.904 234.713C494.904 230.49 493.227 226.44 490.241 223.454C487.254 220.467 483.204 218.79 478.981 218.79Z" fill="white"/>
<path d="M454.411 247.428C456.194 251.449 454.57 256.68 450.35 257.922C424.068 265.669 401.417 266.696 384.291 266.696C379.164 261.768 374.785 256.513 371.107 251.067C391.688 251.067 424.53 250.111 443.909 243.376C448.065 241.927 452.627 243.392 454.411 247.428ZM351.592 194.904C351.592 194.904 366.521 195.9 375.478 186.943C390.406 200.382 422.771 195.605 431.21 186.943C439.674 200.382 486.449 197.89 494.904 186.943C504.857 198.392 547.651 200.876 558.599 186.943C562.412 198.575 612.89 201.863 622.293 186.943C630.74 195.605 662.603 202.373 680.502 186.943C684.992 196.401 701.911 194.904 701.911 194.904V202.866H351.592M471.019 234.713C471.019 239.108 474.586 242.675 478.981 242.675C483.376 242.675 486.943 239.108 486.943 234.713C486.943 230.318 483.376 226.752 478.981 226.752C474.586 226.752 471.019 230.318 471.019 234.713Z" fill="#37474F"/>
<path d="M423.248 171.019H383.439V131.21H423.248V171.019ZM502.866 131.21H463.057V171.019H502.866V131.21ZM582.484 131.21H542.675V171.019H582.484V131.21ZM463.057 91.4013H423.248V131.21H463.057V91.4013ZM542.675 91.4013H502.866V131.21H542.675V91.4013Z" fill="#01579B"/>
<path d="M463.057 171.019H423.248V131.21H463.057V171.019ZM542.675 131.21H502.866V171.019H542.675V131.21ZM542.675 51.5923H502.866V91.4013H542.675V51.5923ZM502.866 91.4013H463.057V131.21H502.866V91.4013Z" fill="#0288D1"/>
<path d="M769.518 334.98V329.909H793.41V334.98H784.504V359H778.424V334.98H769.518ZM804.01 359.426C801.766 359.426 799.834 358.972 798.215 358.062C796.605 357.144 795.364 355.847 794.493 354.17C793.622 352.485 793.186 350.491 793.186 348.19C793.186 345.946 793.622 343.976 794.493 342.281C795.364 340.586 796.591 339.265 798.172 338.318C799.763 337.371 801.629 336.898 803.769 336.898C805.208 336.898 806.548 337.13 807.789 337.594C809.039 338.048 810.128 338.735 811.056 339.653C811.993 340.572 812.722 341.727 813.243 343.119C813.764 344.502 814.025 346.121 814.025 347.977V349.639H795.601V345.889H808.328C808.328 345.018 808.139 344.246 807.76 343.574C807.382 342.902 806.856 342.376 806.184 341.997C805.521 341.609 804.749 341.415 803.868 341.415C802.95 341.415 802.135 341.628 801.425 342.054C800.724 342.471 800.175 343.034 799.777 343.744C799.38 344.445 799.176 345.226 799.167 346.088V349.653C799.167 350.733 799.365 351.666 799.763 352.452C800.17 353.238 800.743 353.844 801.482 354.27C802.221 354.696 803.096 354.909 804.11 354.909C804.782 354.909 805.398 354.814 805.956 354.625C806.515 354.436 806.993 354.152 807.391 353.773C807.789 353.394 808.092 352.93 808.3 352.381L813.897 352.75C813.613 354.095 813.03 355.269 812.15 356.273C811.278 357.267 810.151 358.044 808.769 358.602C807.396 359.152 805.81 359.426 804.01 359.426ZM817.973 359V337.182H823.84V340.989H824.067C824.465 339.634 825.132 338.612 826.07 337.92C827.007 337.22 828.087 336.869 829.309 336.869C829.612 336.869 829.938 336.888 830.289 336.926C830.639 336.964 830.947 337.016 831.212 337.082V342.452C830.928 342.366 830.535 342.291 830.033 342.224C829.531 342.158 829.072 342.125 828.655 342.125C827.765 342.125 826.97 342.319 826.269 342.707C825.578 343.086 825.028 343.616 824.621 344.298C824.223 344.98 824.025 345.766 824.025 346.656V359H817.973ZM834.341 359V337.182H840.207V340.989H840.434C840.832 339.634 841.5 338.612 842.437 337.92C843.375 337.22 844.454 336.869 845.676 336.869C845.979 336.869 846.306 336.888 846.656 336.926C847.006 336.964 847.314 337.016 847.579 337.082V342.452C847.295 342.366 846.902 342.291 846.4 342.224C845.898 342.158 845.439 342.125 845.022 342.125C844.132 342.125 843.337 342.319 842.636 342.707C841.945 343.086 841.395 343.616 840.988 344.298C840.591 344.98 840.392 345.766 840.392 346.656V359H834.341ZM856.304 359.412C854.912 359.412 853.672 359.17 852.583 358.688C851.494 358.195 850.632 357.471 849.998 356.514C849.373 355.548 849.06 354.346 849.06 352.906C849.06 351.694 849.283 350.676 849.728 349.852C850.173 349.028 850.779 348.366 851.546 347.864C852.313 347.362 853.184 346.983 854.159 346.727C855.144 346.472 856.176 346.292 857.256 346.188C858.525 346.055 859.548 345.932 860.324 345.818C861.101 345.695 861.664 345.515 862.015 345.278C862.365 345.042 862.54 344.691 862.54 344.227V344.142C862.54 343.242 862.256 342.546 861.688 342.054C861.129 341.562 860.334 341.315 859.301 341.315C858.212 341.315 857.346 341.557 856.702 342.04C856.058 342.513 855.632 343.11 855.424 343.83L849.827 343.375C850.111 342.049 850.67 340.903 851.503 339.938C852.337 338.962 853.411 338.214 854.728 337.693C856.053 337.163 857.587 336.898 859.33 336.898C860.542 336.898 861.702 337.04 862.81 337.324C863.927 337.608 864.917 338.048 865.779 338.645C866.65 339.241 867.337 340.009 867.838 340.946C868.34 341.874 868.591 342.987 868.591 344.284V359H862.853V355.974H862.682C862.332 356.656 861.863 357.258 861.276 357.778C860.689 358.29 859.983 358.692 859.159 358.986C858.336 359.27 857.384 359.412 856.304 359.412ZM858.037 355.236C858.927 355.236 859.713 355.061 860.395 354.71C861.077 354.35 861.612 353.867 862 353.261C862.389 352.655 862.583 351.969 862.583 351.202V348.886C862.393 349.009 862.133 349.123 861.801 349.227C861.48 349.322 861.115 349.412 860.708 349.497C860.301 349.573 859.893 349.644 859.486 349.71C859.079 349.767 858.71 349.819 858.378 349.866C857.668 349.971 857.048 350.136 856.517 350.364C855.987 350.591 855.575 350.899 855.282 351.287C854.988 351.666 854.841 352.139 854.841 352.707C854.841 353.531 855.14 354.161 855.736 354.597C856.342 355.023 857.109 355.236 858.037 355.236ZM885.019 337.182V341.727H871.553V337.182H885.019ZM874.635 359V335.605C874.635 334.024 874.943 332.712 875.559 331.67C876.184 330.629 877.036 329.848 878.115 329.327C879.195 328.806 880.421 328.545 881.794 328.545C882.722 328.545 883.57 328.616 884.337 328.759C885.114 328.901 885.691 329.028 886.07 329.142L884.99 333.688C884.754 333.612 884.46 333.541 884.11 333.474C883.769 333.408 883.418 333.375 883.059 333.375C882.168 333.375 881.548 333.583 881.198 334C880.847 334.407 880.672 334.98 880.672 335.719V359H874.635ZM897.792 359.426C895.586 359.426 893.678 358.957 892.068 358.02C890.467 357.073 889.232 355.757 888.36 354.071C887.489 352.376 887.054 350.411 887.054 348.176C887.054 345.922 887.489 343.953 888.36 342.267C889.232 340.572 890.467 339.256 892.068 338.318C893.678 337.371 895.586 336.898 897.792 336.898C899.999 336.898 901.902 337.371 903.502 338.318C905.112 339.256 906.353 340.572 907.224 342.267C908.095 343.953 908.531 345.922 908.531 348.176C908.531 350.411 908.095 352.376 907.224 354.071C906.353 355.757 905.112 357.073 903.502 358.02C901.902 358.957 899.999 359.426 897.792 359.426ZM897.821 354.739C898.824 354.739 899.663 354.455 900.335 353.886C901.007 353.309 901.514 352.523 901.855 351.528C902.205 350.534 902.38 349.402 902.38 348.134C902.38 346.865 902.205 345.733 901.855 344.739C901.514 343.744 901.007 342.958 900.335 342.381C899.663 341.803 898.824 341.514 897.821 341.514C896.807 341.514 895.955 341.803 895.264 342.381C894.582 342.958 894.066 343.744 893.716 344.739C893.375 345.733 893.204 346.865 893.204 348.134C893.204 349.402 893.375 350.534 893.716 351.528C894.066 352.523 894.582 353.309 895.264 353.886C895.955 354.455 896.807 354.739 897.821 354.739ZM912.466 359V337.182H918.332V340.989H918.559C918.957 339.634 919.625 338.612 920.562 337.92C921.5 337.22 922.579 336.869 923.801 336.869C924.104 336.869 924.431 336.888 924.781 336.926C925.131 336.964 925.439 337.016 925.704 337.082V342.452C925.42 342.366 925.027 342.291 924.525 342.224C924.023 342.158 923.564 342.125 923.147 342.125C922.257 342.125 921.462 342.319 920.761 342.707C920.07 343.086 919.52 343.616 919.113 344.298C918.716 344.98 918.517 345.766 918.517 346.656V359H912.466ZM928.833 359V337.182H934.6V341.031H934.855C935.31 339.753 936.068 338.744 937.128 338.006C938.189 337.267 939.458 336.898 940.935 336.898C942.431 336.898 943.705 337.272 944.756 338.02C945.807 338.759 946.508 339.762 946.858 341.031H947.086C947.531 339.781 948.336 338.782 949.5 338.034C950.675 337.277 952.062 336.898 953.662 336.898C955.698 336.898 957.351 337.546 958.62 338.844C959.898 340.132 960.537 341.959 960.537 344.327V359H954.5V345.52C954.5 344.308 954.178 343.399 953.534 342.793C952.891 342.187 952.086 341.884 951.12 341.884C950.021 341.884 949.164 342.234 948.549 342.935C947.933 343.626 947.625 344.54 947.625 345.676V359H941.759V345.392C941.759 344.322 941.451 343.47 940.836 342.835C940.23 342.201 939.429 341.884 938.435 341.884C937.763 341.884 937.157 342.054 936.617 342.395C936.087 342.726 935.665 343.195 935.353 343.801C935.04 344.398 934.884 345.098 934.884 345.903V359H928.833Z" fill="#6042EA"/>
<g clip-path="url(#clip1_406_52)">
<path d="M820.667 166.667L754 127.778V50L820.667 88.8889V166.667Z" fill="#6042EA"/>
<path d="M898.444 211.111L831.778 172.222V94.4445L898.444 133.333V211.111Z" fill="#6042EA"/>
<path d="M909.556 211.111L976.222 172.222V94.4445L909.556 133.333V211.111Z" fill="#4040B2"/>
<path d="M898.444 300L831.778 261.111V183.333L898.444 222.222V300Z" fill="#6042EA"/>
</g>
<path d="M1059.61 359H1053.02L1063.06 329.909H1070.99L1081.02 359H1074.42L1067.14 336.557H1066.91L1059.61 359ZM1059.2 347.565H1074.77V352.366H1059.2V347.565ZM1088.14 359L1079.81 329.909H1086.53L1091.35 350.122H1091.59L1096.9 329.909H1102.65L1107.95 350.165H1108.21L1113.02 329.909H1119.74L1111.42 359H1105.42L1099.88 339.98H1099.66L1094.13 359H1088.14ZM1138.54 338.276C1138.43 337.13 1137.94 336.24 1137.08 335.605C1136.22 334.971 1135.05 334.653 1133.57 334.653C1132.56 334.653 1131.72 334.795 1131.03 335.08C1130.33 335.354 1129.8 335.738 1129.44 336.23C1129.08 336.723 1128.9 337.281 1128.9 337.906C1128.88 338.427 1128.99 338.882 1129.22 339.27C1129.47 339.658 1129.8 339.994 1130.23 340.278C1130.66 340.553 1131.15 340.795 1131.71 341.003C1132.27 341.202 1132.86 341.372 1133.5 341.514L1136.11 342.139C1137.38 342.423 1138.54 342.802 1139.61 343.276C1140.67 343.749 1141.58 344.331 1142.36 345.023C1143.14 345.714 1143.74 346.528 1144.17 347.466C1144.6 348.403 1144.82 349.478 1144.83 350.69C1144.82 352.471 1144.37 354.014 1143.47 355.321C1142.58 356.618 1141.29 357.627 1139.61 358.347C1137.93 359.057 1135.91 359.412 1133.54 359.412C1131.19 359.412 1129.15 359.052 1127.4 358.332C1125.67 357.613 1124.32 356.547 1123.34 355.136C1122.38 353.716 1121.87 351.959 1121.82 349.866H1127.77C1127.84 350.842 1128.12 351.656 1128.61 352.31C1129.11 352.954 1129.78 353.441 1130.61 353.773C1131.46 354.095 1132.41 354.256 1133.47 354.256C1134.51 354.256 1135.42 354.104 1136.18 353.801C1136.96 353.498 1137.56 353.077 1137.99 352.537C1138.41 351.997 1138.63 351.377 1138.63 350.676C1138.63 350.023 1138.43 349.473 1138.04 349.028C1137.66 348.583 1137.11 348.205 1136.37 347.892C1135.64 347.58 1134.74 347.295 1133.68 347.04L1130.51 346.244C1128.06 345.648 1126.13 344.715 1124.7 343.446C1123.28 342.177 1122.58 340.468 1122.59 338.318C1122.58 336.557 1123.05 335.018 1123.99 333.702C1124.95 332.385 1126.26 331.358 1127.93 330.619C1129.6 329.881 1131.49 329.511 1133.61 329.511C1135.77 329.511 1137.65 329.881 1139.26 330.619C1140.88 331.358 1142.14 332.385 1143.04 333.702C1143.94 335.018 1144.41 336.543 1144.44 338.276H1138.54ZM1163.24 359H1156.65L1166.69 329.909H1174.62L1184.65 359H1178.06L1170.77 336.557H1170.54L1163.24 359ZM1162.83 347.565H1178.4V352.366H1162.83V347.565ZM1212.45 340.094H1206.23C1206.11 339.289 1205.88 338.574 1205.53 337.949C1205.18 337.314 1204.73 336.775 1204.18 336.33C1203.63 335.884 1203 335.544 1202.28 335.307C1201.57 335.07 1200.8 334.952 1199.96 334.952C1198.46 334.952 1197.15 335.326 1196.03 336.074C1194.91 336.812 1194.05 337.892 1193.43 339.312C1192.81 340.723 1192.51 342.437 1192.51 344.455C1192.51 346.528 1192.81 348.271 1193.43 349.682C1194.06 351.093 1194.93 352.158 1196.04 352.878C1197.16 353.598 1198.45 353.957 1199.92 353.957C1200.75 353.957 1201.51 353.848 1202.21 353.631C1202.92 353.413 1203.55 353.096 1204.1 352.679C1204.65 352.253 1205.1 351.737 1205.46 351.131C1205.83 350.525 1206.09 349.833 1206.23 349.057L1212.45 349.085C1212.29 350.42 1211.89 351.708 1211.24 352.949C1210.61 354.18 1209.75 355.283 1208.67 356.259C1207.6 357.224 1206.32 357.991 1204.84 358.56C1203.36 359.118 1201.69 359.398 1199.82 359.398C1197.23 359.398 1194.91 358.811 1192.86 357.636C1190.83 356.462 1189.22 354.762 1188.03 352.537C1186.86 350.312 1186.27 347.617 1186.27 344.455C1186.27 341.282 1186.87 338.583 1188.06 336.358C1189.25 334.133 1190.87 332.437 1192.92 331.273C1194.96 330.098 1197.27 329.511 1199.82 329.511C1201.51 329.511 1203.07 329.748 1204.51 330.222C1205.96 330.695 1207.24 331.386 1208.36 332.295C1209.48 333.195 1210.39 334.298 1211.09 335.605C1211.8 336.912 1212.25 338.408 1212.45 340.094ZM1216.86 329.909H1224.45L1232.46 349.455H1232.8L1240.81 329.909H1248.39V359H1242.43V340.065H1242.19L1234.66 358.858H1230.6L1223.07 339.994H1222.83V359H1216.86V329.909Z" fill="#DE2D34"/>
<g clip-path="url(#clip2_406_52)">
<path d="M1277 50H1027V300H1277V50Z" fill="url(#paint0_linear_406_52)"/>
<path d="M1138.54 172.753C1139.33 173.506 1139.66 174.606 1139.43 175.666L1136.22 190.381L1150.37 181.712C1151.37 181.094 1152.63 181.094 1153.64 181.716L1167.67 190.363L1164.57 175.622C1164.35 174.575 1164.67 173.491 1165.44 172.744L1178.06 160.388L1161.6 158.012C1160.58 157.862 1159.7 157.219 1159.24 156.291L1151.97 141.409L1144.53 156.328C1144.08 157.244 1143.2 157.878 1142.19 158.025L1125.78 160.422L1138.54 172.753ZM1128.56 196.209L1132.95 176.037L1116.86 160.497C1116 159.669 1115.69 158.428 1116.06 157.291C1116.42 156.156 1117.4 155.328 1118.58 155.159L1139.67 152.075L1149.2 132.953C1149.73 131.891 1150.73 131.159 1152.01 131.222C1153.2 131.228 1154.28 131.909 1154.81 132.975L1164.13 152.063L1185.21 155.109C1186.38 155.278 1187.36 156.1 1187.73 157.231C1188.1 158.363 1187.8 159.603 1186.94 160.434L1171.03 176.009L1175.29 196.197C1175.55 197.422 1175.06 198.681 1174.03 199.4C1173.01 200.119 1171.66 200.159 1170.6 199.506L1152 188.044L1133.25 199.538C1132.75 199.847 1132.18 200 1131.61 200C1130.98 200 1130.34 199.806 1129.8 199.422C1128.78 198.697 1128.29 197.431 1128.56 196.209ZM1070.75 115.691H1233.25V100H1070.75V115.691ZM1239.5 96.875V253.125C1239.5 254.85 1238.1 256.25 1236.38 256.25H1217.62V250H1233.25V121.944H1070.75V250H1189.5V256.25H1067.62C1065.9 256.25 1064.5 254.85 1064.5 253.125V96.875C1064.5 95.15 1065.9 93.75 1067.62 93.75H1236.38C1238.1 93.75 1239.5 95.15 1239.5 96.875ZM1102 234.375H1120.75V228.125H1102V234.375ZM1133.25 234.375H1177V228.125H1133.25V234.375ZM1102 218.75H1120.75V212.5H1102V218.75ZM1133.25 218.75H1202V212.5H1133.25V218.75Z" fill="white"/>
</g>
<path d="M1366.82 359H1360.23L1370.27 329.909H1378.19L1388.22 359H1381.63L1374.34 336.557H1374.12L1366.82 359ZM1366.4 347.565H1381.97V352.366H1366.4V347.565ZM1395.34 359L1387.02 329.909H1393.74L1398.55 350.122H1398.79L1404.11 329.909H1409.86L1415.16 350.165H1415.41L1420.23 329.909H1426.95L1418.62 359H1412.63L1407.09 339.98H1406.86L1401.34 359H1395.34ZM1445.75 338.276C1445.63 337.13 1445.15 336.24 1444.28 335.605C1443.42 334.971 1442.25 334.653 1440.78 334.653C1439.77 334.653 1438.92 334.795 1438.23 335.08C1437.54 335.354 1437.01 335.738 1436.64 336.23C1436.28 336.723 1436.1 337.281 1436.1 337.906C1436.08 338.427 1436.19 338.882 1436.43 339.27C1436.68 339.658 1437.01 339.994 1437.44 340.278C1437.86 340.553 1438.36 340.795 1438.91 341.003C1439.47 341.202 1440.07 341.372 1440.7 341.514L1443.32 342.139C1444.59 342.423 1445.75 342.802 1446.81 343.276C1447.87 343.749 1448.79 344.331 1449.57 345.023C1450.34 345.714 1450.95 346.528 1451.37 347.466C1451.81 348.403 1452.03 349.478 1452.04 350.69C1452.03 352.471 1451.58 354.014 1450.68 355.321C1449.79 356.618 1448.5 357.627 1446.81 358.347C1445.14 359.057 1443.11 359.412 1440.75 359.412C1438.4 359.412 1436.35 359.052 1434.61 358.332C1432.88 357.613 1431.52 356.547 1430.55 355.136C1429.58 353.716 1429.08 351.959 1429.03 349.866H1434.98C1435.05 350.842 1435.33 351.656 1435.82 352.31C1436.32 352.954 1436.99 353.441 1437.82 353.773C1438.66 354.095 1439.62 354.256 1440.68 354.256C1441.72 354.256 1442.62 354.104 1443.39 353.801C1444.17 353.498 1444.77 353.077 1445.19 352.537C1445.62 351.997 1445.83 351.377 1445.83 350.676C1445.83 350.023 1445.64 349.473 1445.25 349.028C1444.87 348.583 1444.31 348.205 1443.57 347.892C1442.84 347.58 1441.95 347.295 1440.89 347.04L1437.72 346.244C1435.27 345.648 1433.33 344.715 1431.91 343.446C1430.49 342.177 1429.79 340.468 1429.8 338.318C1429.79 336.557 1430.25 335.018 1431.2 333.702C1432.16 332.385 1433.47 331.358 1435.14 330.619C1436.8 329.881 1438.7 329.511 1440.82 329.511C1442.98 329.511 1444.86 329.881 1446.47 330.619C1448.09 331.358 1449.35 332.385 1450.25 333.702C1451.15 335.018 1451.61 336.543 1451.64 338.276H1445.75ZM1465.43 359V329.909H1485.04V334.98H1471.59V341.912H1484.03V346.983H1471.59V353.929H1485.09V359H1465.43ZM1515.59 340.094H1509.37C1509.26 339.289 1509.03 338.574 1508.68 337.949C1508.33 337.314 1507.88 336.775 1507.33 336.33C1506.78 335.884 1506.14 335.544 1505.42 335.307C1504.71 335.07 1503.94 334.952 1503.11 334.952C1501.6 334.952 1500.29 335.326 1499.17 336.074C1498.06 336.812 1497.19 337.892 1496.57 339.312C1495.96 340.723 1495.65 342.437 1495.65 344.455C1495.65 346.528 1495.96 348.271 1496.57 349.682C1497.2 351.093 1498.07 352.158 1499.19 352.878C1500.31 353.598 1501.6 353.957 1503.07 353.957C1503.89 353.957 1504.65 353.848 1505.35 353.631C1506.06 353.413 1506.69 353.096 1507.24 352.679C1507.79 352.253 1508.25 351.737 1508.61 351.131C1508.98 350.525 1509.23 349.833 1509.37 349.057L1515.59 349.085C1515.43 350.42 1515.03 351.708 1514.39 352.949C1513.75 354.18 1512.9 355.283 1511.82 356.259C1510.75 357.224 1509.47 357.991 1507.98 358.56C1506.5 359.118 1504.83 359.398 1502.97 359.398C1500.37 359.398 1498.05 358.811 1496.01 357.636C1493.97 356.462 1492.36 354.762 1491.18 352.537C1490 350.312 1489.42 347.617 1489.42 344.455C1489.42 341.282 1490.01 338.583 1491.21 336.358C1492.4 334.133 1494.02 332.437 1496.06 331.273C1498.11 330.098 1500.41 329.511 1502.97 329.511C1504.65 329.511 1506.21 329.748 1507.65 330.222C1509.1 330.695 1510.39 331.386 1511.5 332.295C1512.62 333.195 1513.53 334.298 1514.23 335.605C1514.94 336.912 1515.4 338.408 1515.59 340.094ZM1520 359V329.909H1531.48C1533.68 329.909 1535.55 330.302 1537.11 331.088C1538.67 331.865 1539.86 332.968 1540.67 334.398C1541.5 335.818 1541.91 337.49 1541.91 339.412C1541.91 341.344 1541.49 343.006 1540.66 344.398C1539.83 345.78 1538.62 346.841 1537.04 347.58C1535.46 348.318 1533.56 348.688 1531.33 348.688H1523.64V343.744H1530.33C1531.51 343.744 1532.48 343.583 1533.26 343.261C1534.03 342.939 1534.61 342.456 1534.99 341.812C1535.38 341.169 1535.57 340.368 1535.57 339.412C1535.57 338.446 1535.38 337.632 1534.99 336.969C1534.61 336.306 1534.03 335.804 1533.24 335.463C1532.47 335.113 1531.49 334.938 1530.3 334.938H1526.16V359H1520ZM1535.72 345.761L1542.95 359H1536.16L1529.08 345.761H1535.72Z" fill="#E4750E"/>
<g clip-path="url(#clip3_406_52)">
<path d="M1577 50H1327V300H1577V50Z" fill="url(#paint1_linear_406_52)"/>
<path fill-rule="evenodd" clip-rule="evenodd" d="M1448.21 167.43C1446.67 168.33 1445.7 170 1445.7 171.793V258.499L1380.12 221.826V136.586L1453.74 93.9339L1519.14 126.339L1448.21 167.43ZM1526.75 126.257C1526.75 124.461 1525.79 122.788 1524.06 121.797L1456.21 88.1707C1454.66 87.2775 1452.73 87.2744 1451.19 88.1738L1376.38 131.513C1374.84 132.412 1373.88 134.082 1373.88 135.875V222.549C1373.88 224.342 1374.84 226.012 1376.43 226.937L1444.42 264.954C1445.19 265.403 1446.06 265.625 1446.93 265.625C1447.8 265.625 1448.67 265.403 1449.44 264.954C1450.99 264.058 1451.95 262.388 1451.95 260.592V172.504L1524.24 130.619C1525.79 129.723 1526.75 128.053 1526.75 126.257ZM1526.9 222.023L1467.57 258.317V225.818L1498.51 205.852L1498.72 204.451C1498.77 204.084 1498.8 204.084 1498.8 202.395L1498.89 163.626L1527 147.339L1526.9 222.023ZM1530.74 140.848C1529.19 139.943 1527.26 139.946 1525.71 140.848L1495.79 158.182C1494.86 158.693 1492.65 159.893 1492.65 162.369L1492.55 202.242L1464.03 220.644C1462.33 221.659 1461.32 223.267 1461.32 224.966V260.338C1461.32 262.109 1462.27 263.723 1463.87 264.647C1464.7 265.127 1465.63 265.371 1466.55 265.371C1467.46 265.371 1468.37 265.139 1469.19 264.663L1530.65 227.075C1532.19 226.175 1533.15 224.505 1533.15 222.722L1533.25 145.208C1533.25 143.415 1532.29 141.745 1530.74 140.848Z" fill="white"/>
</g>
<path d="M90.8356 727H84.2447L94.2873 697.909H102.213L112.242 727H105.651L98.364 704.557H98.1367L90.8356 727ZM90.4237 715.565H105.992V720.366H90.4237V715.565ZM119.362 727L111.038 697.909H117.757L122.572 718.122H122.814L128.126 697.909H133.879L139.177 718.165H139.433L144.248 697.909H150.967L142.643 727H136.649L131.109 707.98H130.882L125.356 727H119.362ZM169.767 706.276C169.653 705.13 169.165 704.24 168.304 703.605C167.442 702.971 166.272 702.653 164.795 702.653C163.791 702.653 162.944 702.795 162.252 703.08C161.561 703.354 161.031 703.738 160.662 704.23C160.302 704.723 160.122 705.281 160.122 705.906C160.103 706.427 160.212 706.882 160.449 707.27C160.695 707.658 161.031 707.994 161.457 708.278C161.883 708.553 162.376 708.795 162.934 709.003C163.493 709.202 164.09 709.372 164.724 709.514L167.338 710.139C168.607 710.423 169.771 710.802 170.832 711.276C171.893 711.749 172.811 712.331 173.588 713.023C174.364 713.714 174.966 714.528 175.392 715.466C175.827 716.403 176.05 717.478 176.059 718.69C176.05 720.471 175.595 722.014 174.696 723.321C173.806 724.618 172.518 725.627 170.832 726.347C169.156 727.057 167.134 727.412 164.767 727.412C162.418 727.412 160.373 727.052 158.63 726.332C156.897 725.613 155.543 724.547 154.568 723.136C153.602 721.716 153.095 719.959 153.048 717.866H159C159.066 718.842 159.345 719.656 159.838 720.31C160.34 720.954 161.007 721.441 161.841 721.773C162.683 722.095 163.635 722.256 164.696 722.256C165.737 722.256 166.642 722.104 167.409 721.801C168.185 721.498 168.787 721.077 169.213 720.537C169.639 719.997 169.852 719.377 169.852 718.676C169.852 718.023 169.658 717.473 169.27 717.028C168.891 716.583 168.332 716.205 167.593 715.892C166.864 715.58 165.969 715.295 164.909 715.04L161.741 714.244C159.288 713.648 157.352 712.715 155.931 711.446C154.511 710.177 153.806 708.468 153.815 706.318C153.806 704.557 154.274 703.018 155.221 701.702C156.178 700.385 157.489 699.358 159.156 698.619C160.823 697.881 162.717 697.511 164.838 697.511C166.997 697.511 168.881 697.881 170.491 698.619C172.11 699.358 173.37 700.385 174.27 701.702C175.169 703.018 175.633 704.543 175.662 706.276H169.767ZM189.454 727V697.909H209.056V702.98H195.605V709.912H208.048V714.983H195.605V721.929H209.113V727H189.454ZM239.614 708.094H233.392C233.279 707.289 233.047 706.574 232.696 705.949C232.346 705.314 231.896 704.775 231.347 704.33C230.798 703.884 230.163 703.544 229.444 703.307C228.733 703.07 227.962 702.952 227.128 702.952C225.623 702.952 224.311 703.326 223.194 704.074C222.076 704.812 221.21 705.892 220.594 707.312C219.979 708.723 219.671 710.437 219.671 712.455C219.671 714.528 219.979 716.271 220.594 717.682C221.219 719.093 222.09 720.158 223.208 720.878C224.325 721.598 225.618 721.957 227.086 721.957C227.909 721.957 228.672 721.848 229.373 721.631C230.083 721.413 230.712 721.096 231.262 720.679C231.811 720.253 232.266 719.737 232.625 719.131C232.995 718.525 233.25 717.833 233.392 717.057L239.614 717.085C239.453 718.42 239.051 719.708 238.407 720.949C237.772 722.18 236.915 723.283 235.836 724.259C234.766 725.224 233.487 725.991 232 726.56C230.523 727.118 228.852 727.398 226.986 727.398C224.391 727.398 222.071 726.811 220.026 725.636C217.99 724.462 216.38 722.762 215.196 720.537C214.022 718.312 213.435 715.617 213.435 712.455C213.435 709.282 214.032 706.583 215.225 704.358C216.418 702.133 218.037 700.437 220.083 699.273C222.128 698.098 224.429 697.511 226.986 697.511C228.672 697.511 230.234 697.748 231.674 698.222C233.123 698.695 234.406 699.386 235.523 700.295C236.641 701.195 237.55 702.298 238.25 703.605C238.961 704.912 239.415 706.408 239.614 708.094ZM259.806 706.276C259.692 705.13 259.204 704.24 258.343 703.605C257.481 702.971 256.311 702.653 254.834 702.653C253.83 702.653 252.983 702.795 252.292 703.08C251.6 703.354 251.07 703.738 250.701 704.23C250.341 704.723 250.161 705.281 250.161 705.906C250.142 706.427 250.251 706.882 250.488 707.27C250.734 707.658 251.07 707.994 251.496 708.278C251.922 708.553 252.415 708.795 252.973 709.003C253.532 709.202 254.129 709.372 254.763 709.514L257.377 710.139C258.646 710.423 259.81 710.802 260.871 711.276C261.932 711.749 262.85 712.331 263.627 713.023C264.403 713.714 265.005 714.528 265.431 715.466C265.866 716.403 266.089 717.478 266.098 718.69C266.089 720.471 265.634 722.014 264.735 723.321C263.845 724.618 262.557 725.627 260.871 726.347C259.195 727.057 257.173 727.412 254.806 727.412C252.457 727.412 250.412 727.052 248.669 726.332C246.936 725.613 245.582 724.547 244.607 723.136C243.641 721.716 243.134 719.959 243.087 717.866H249.039C249.105 718.842 249.384 719.656 249.877 720.31C250.379 720.954 251.046 721.441 251.88 721.773C252.722 722.095 253.674 722.256 254.735 722.256C255.776 722.256 256.681 722.104 257.448 721.801C258.224 721.498 258.826 721.077 259.252 720.537C259.678 719.997 259.891 719.377 259.891 718.676C259.891 718.023 259.697 717.473 259.309 717.028C258.93 716.583 258.371 716.205 257.632 715.892C256.903 715.58 256.008 715.295 254.948 715.04L251.78 714.244C249.328 713.648 247.391 712.715 245.971 711.446C244.55 710.177 243.845 708.468 243.854 706.318C243.845 704.557 244.313 703.018 245.26 701.702C246.217 700.385 247.528 699.358 249.195 698.619C250.862 697.881 252.756 697.511 254.877 697.511C257.036 697.511 258.92 697.881 260.53 698.619C262.15 699.358 263.409 700.385 264.309 701.702C265.208 703.018 265.672 704.543 265.701 706.276H259.806Z" fill="#E4760E"/>
<g clip-path="url(#clip4_406_52)">
<path d="M300 418H50V668H300V418Z" fill="url(#paint2_linear_406_52)"/>
<path fill-rule="evenodd" clip-rule="evenodd" d="M250 568.731L225 553.728V518C225 516.888 224.413 515.859 223.45 515.3L187.5 494.331V464.1L250 501.034V568.731ZM254.716 496.559L185.966 455.934C184.997 455.363 183.806 455.356 182.825 455.909C181.853 456.466 181.25 457.503 181.25 458.625V496.125C181.25 497.234 181.841 498.263 182.8 498.825L218.75 519.794V555.5C218.75 556.597 219.328 557.616 220.269 558.178L251.519 576.928C252.013 577.225 252.569 577.375 253.125 577.375C253.656 577.375 254.187 577.241 254.666 576.969C255.647 576.416 256.25 575.375 256.25 574.25V499.25C256.25 498.144 255.669 497.122 254.716 496.559ZM176.391 626.947L103.125 587.997V501.034L165.625 464.1V494.409L132.697 515.363C131.797 515.938 131.25 516.931 131.25 518V571.125C131.25 572.291 131.9 573.359 132.931 573.897L174.972 595.772C175.875 596.241 176.95 596.244 177.85 595.775L218.638 574.7L243.737 589.763L176.391 626.947ZM251.609 587.194L220.359 568.444C219.428 567.888 218.278 567.85 217.316 568.35L176.422 589.478L137.5 569.228V519.716L170.428 498.763C171.328 498.188 171.875 497.194 171.875 496.125V458.625C171.875 457.503 171.275 456.466 170.3 455.909C169.325 455.356 168.131 455.363 167.159 455.934L98.4094 496.559C97.4594 497.122 96.875 498.144 96.875 499.25V589.875C96.875 591.028 97.5125 592.091 98.5312 592.634L174.95 633.259C175.409 633.503 175.912 633.625 176.416 633.625C176.937 633.625 177.456 633.494 177.928 633.234L251.513 592.609C252.491 592.069 253.103 591.047 253.125 589.931C253.144 588.813 252.566 587.769 251.609 587.194Z" fill="white"/>
</g>
<path d="M390.945 727H384.354L394.397 697.909H402.323L412.351 727H405.76L398.473 704.557H398.246L390.945 727ZM390.533 715.565H406.101V720.366H390.533V715.565ZM419.471 727L411.147 697.909H417.866L422.681 718.122H422.923L428.235 697.909H433.988L439.287 718.165H439.542L444.358 697.909H451.076L442.752 727H436.758L431.218 707.98H430.991L425.466 727H419.471ZM469.876 706.276C469.762 705.13 469.275 704.24 468.413 703.605C467.551 702.971 466.382 702.653 464.904 702.653C463.901 702.653 463.053 702.795 462.362 703.08C461.671 703.354 461.14 703.738 460.771 704.23C460.411 704.723 460.231 705.281 460.231 705.906C460.212 706.427 460.321 706.882 460.558 707.27C460.804 707.658 461.14 707.994 461.566 708.278C461.993 708.553 462.485 708.795 463.044 709.003C463.602 709.202 464.199 709.372 464.833 709.514L467.447 710.139C468.716 710.423 469.881 710.802 470.941 711.276C472.002 711.749 472.921 712.331 473.697 713.023C474.474 713.714 475.075 714.528 475.501 715.466C475.937 716.403 476.159 717.478 476.169 718.69C476.159 720.471 475.705 722.014 474.805 723.321C473.915 724.618 472.627 725.627 470.941 726.347C469.265 727.057 467.243 727.412 464.876 727.412C462.528 727.412 460.482 727.052 458.74 726.332C457.007 725.613 455.653 724.547 454.677 723.136C453.711 721.716 453.205 719.959 453.157 717.866H459.109C459.175 718.842 459.455 719.656 459.947 720.31C460.449 720.954 461.117 721.441 461.95 721.773C462.793 722.095 463.744 722.256 464.805 722.256C465.847 722.256 466.751 722.104 467.518 721.801C468.295 721.498 468.896 721.077 469.322 720.537C469.748 719.997 469.961 719.377 469.961 718.676C469.961 718.023 469.767 717.473 469.379 717.028C469 716.583 468.441 716.205 467.703 715.892C466.974 715.58 466.079 715.295 465.018 715.04L461.85 714.244C459.398 713.648 457.461 712.715 456.041 711.446C454.62 710.177 453.915 708.468 453.924 706.318C453.915 704.557 454.384 703.018 455.331 701.702C456.287 700.385 457.599 699.358 459.265 698.619C460.932 697.881 462.826 697.511 464.947 697.511C467.106 697.511 468.991 697.881 470.6 698.619C472.22 699.358 473.479 700.385 474.379 701.702C475.279 703.018 475.743 704.543 475.771 706.276H469.876ZM489.564 727V697.909H501.041C503.238 697.909 505.113 698.302 506.666 699.088C508.228 699.865 509.417 700.968 510.231 702.398C511.055 703.818 511.467 705.49 511.467 707.412C511.467 709.344 511.05 711.006 510.217 712.398C509.384 713.78 508.176 714.841 506.595 715.58C505.023 716.318 503.119 716.688 500.885 716.688H493.2V711.744H499.89C501.065 711.744 502.04 711.583 502.816 711.261C503.593 710.939 504.171 710.456 504.549 709.812C504.938 709.169 505.132 708.368 505.132 707.412C505.132 706.446 504.938 705.632 504.549 704.969C504.171 704.306 503.588 703.804 502.802 703.463C502.026 703.113 501.046 702.938 499.862 702.938H495.714V727H489.564ZM505.274 713.761L512.504 727H505.714L498.64 713.761H505.274ZM526.126 727H515.814V697.909H526.211C529.137 697.909 531.656 698.491 533.768 699.656C535.88 700.812 537.504 702.473 538.64 704.642C539.786 706.811 540.359 709.405 540.359 712.426C540.359 715.456 539.786 718.061 538.64 720.239C537.504 722.417 535.87 724.088 533.74 725.253C531.618 726.418 529.081 727 526.126 727ZM521.964 721.73H525.87C527.689 721.73 529.218 721.408 530.458 720.764C531.708 720.111 532.646 719.102 533.271 717.739C533.905 716.366 534.223 714.595 534.223 712.426C534.223 710.277 533.905 708.52 533.271 707.156C532.646 705.793 531.713 704.789 530.473 704.145C529.232 703.501 527.703 703.179 525.885 703.179H521.964V721.73ZM560.696 706.276C560.583 705.13 560.095 704.24 559.233 703.605C558.372 702.971 557.202 702.653 555.725 702.653C554.721 702.653 553.873 702.795 553.182 703.08C552.491 703.354 551.961 703.738 551.591 704.23C551.231 704.723 551.051 705.281 551.051 705.906C551.033 706.427 551.141 706.882 551.378 707.27C551.624 707.658 551.961 707.994 552.387 708.278C552.813 708.553 553.305 708.795 553.864 709.003C554.423 709.202 555.019 709.372 555.654 709.514L558.267 710.139C559.536 710.423 560.701 710.802 561.762 711.276C562.822 711.749 563.741 712.331 564.517 713.023C565.294 713.714 565.895 714.528 566.321 715.466C566.757 716.403 566.98 717.478 566.989 718.69C566.98 720.471 566.525 722.014 565.625 723.321C564.735 724.618 563.447 725.627 561.762 726.347C560.086 727.057 558.064 727.412 555.696 727.412C553.348 727.412 551.302 727.052 549.56 726.332C547.827 725.613 546.473 724.547 545.498 723.136C544.532 721.716 544.025 719.959 543.978 717.866H549.929C549.996 718.842 550.275 719.656 550.767 720.31C551.269 720.954 551.937 721.441 552.77 721.773C553.613 722.095 554.565 722.256 555.625 722.256C556.667 722.256 557.571 722.104 558.338 721.801C559.115 721.498 559.716 721.077 560.142 720.537C560.569 719.997 560.782 719.377 560.782 718.676C560.782 718.023 560.587 717.473 560.199 717.028C559.82 716.583 559.262 716.205 558.523 715.892C557.794 715.58 556.899 715.295 555.838 715.04L552.671 714.244C550.218 713.648 548.282 712.715 546.861 711.446C545.441 710.177 544.735 708.468 544.745 706.318C544.735 704.557 545.204 703.018 546.151 701.702C547.107 700.385 548.419 699.358 550.086 698.619C551.752 697.881 553.646 697.511 555.767 697.511C557.926 697.511 559.811 697.881 561.421 698.619C563.04 699.358 564.3 700.385 565.199 701.702C566.099 703.018 566.563 704.543 566.591 706.276H560.696Z" fill="#4154D7"/>
<g clip-path="url(#clip5_406_52)">
<path d="M602 418H352V668H602V418Z" fill="url(#paint3_linear_406_52)"/>
<path fill-rule="evenodd" clip-rule="evenodd" d="M400.169 461.75L429.209 490.791L424.791 495.209L395.75 466.169V489.875H389.5V458.625C389.5 456.9 390.897 455.5 392.625 455.5H423.875V461.75H400.169ZM564.5 458.625V489.875H558.25V466.169L529.209 495.209L524.791 490.791L553.831 461.75H530.125V455.5H561.375C563.103 455.5 564.5 456.9 564.5 458.625ZM558.25 596.125H564.5V627.375C564.5 629.1 563.103 630.5 561.375 630.5H530.125V624.25H553.831L524.791 595.209L529.209 590.791L558.25 619.831V596.125ZM556.688 540.541C556.688 530.169 544.713 519.922 524.656 513.131L526.659 507.213C549.712 515.016 562.938 527.163 562.938 540.541C562.938 553.922 549.712 566.072 526.656 573.872L524.653 567.95C544.713 561.163 556.688 550.919 556.688 540.541ZM397.487 540.541C397.487 550.478 408.697 560.453 427.475 567.228L425.353 573.106C403.672 565.284 391.237 553.416 391.237 540.541C391.237 527.669 403.672 515.8 425.353 507.975L427.475 513.853C408.697 520.631 397.487 530.606 397.487 540.541ZM429.209 595.209L400.169 624.25H423.875V630.5H392.625C390.897 630.5 389.5 629.1 389.5 627.375V596.125H395.75V619.831L424.791 590.791L429.209 595.209ZM477 515.769C454.669 515.769 442.625 510 442.625 507.644C442.625 505.284 454.669 499.519 477 499.519C499.328 499.519 511.375 505.284 511.375 507.644C511.375 510 499.328 515.769 477 515.769ZM477.091 539.972C455.709 539.972 442.625 534.131 442.625 530.953V515.763C450.322 520.009 463.975 522.019 477 522.019C490.025 522.019 503.678 520.009 511.375 515.763V530.953C511.375 534.134 498.359 539.972 477.091 539.972ZM477.091 563.834C455.709 563.834 442.625 557.994 442.625 554.816V539.444C450.222 543.909 463.694 546.222 477.091 546.222C490.412 546.222 503.806 543.913 511.375 539.459V554.816C511.375 557.997 498.359 563.834 477.091 563.834ZM477 585.244C454.759 585.244 442.625 579.266 442.625 576.194V563.306C450.222 567.772 463.694 570.084 477.091 570.084C490.412 570.084 503.806 567.778 511.375 563.322V576.194C511.375 579.266 499.241 585.244 477 585.244ZM477 493.269C457.434 493.269 436.375 497.766 436.375 507.644V576.194C436.375 586.238 456.812 591.494 477 591.494C497.188 591.494 517.625 586.238 517.625 576.194V507.644C517.625 497.766 496.566 493.269 477 493.269Z" fill="white"/>
</g>
<path d="M661.886 727H655.295L665.338 697.909H673.264L683.293 727H676.702L669.415 704.557H669.188L661.886 727ZM661.474 715.565H677.043V720.366H661.474V715.565ZM690.413 727L682.089 697.909H688.808L693.623 718.122H693.864L699.177 697.909H704.93L710.228 718.165H710.484L715.299 697.909H722.018L713.694 727H707.7L702.16 707.98H701.933L696.407 727H690.413ZM740.817 706.276C740.704 705.13 740.216 704.24 739.354 703.605C738.493 702.971 737.323 702.653 735.846 702.653C734.842 702.653 733.995 702.795 733.303 703.08C732.612 703.354 732.082 703.738 731.712 704.23C731.353 704.723 731.173 705.281 731.173 705.906C731.154 706.427 731.263 706.882 731.499 707.27C731.746 707.658 732.082 707.994 732.508 708.278C732.934 708.553 733.426 708.795 733.985 709.003C734.544 709.202 735.14 709.372 735.775 709.514L738.388 710.139C739.657 710.423 740.822 710.802 741.883 711.276C742.943 711.749 743.862 712.331 744.638 713.023C745.415 713.714 746.016 714.528 746.442 715.466C746.878 716.403 747.101 717.478 747.11 718.69C747.101 720.471 746.646 722.014 745.746 723.321C744.856 724.618 743.568 725.627 741.883 726.347C740.207 727.057 738.185 727.412 735.817 727.412C733.469 727.412 731.424 727.052 729.681 726.332C727.948 725.613 726.594 724.547 725.619 723.136C724.653 721.716 724.146 719.959 724.099 717.866H730.05C730.117 718.842 730.396 719.656 730.888 720.31C731.39 720.954 732.058 721.441 732.891 721.773C733.734 722.095 734.686 722.256 735.746 722.256C736.788 722.256 737.692 722.104 738.46 721.801C739.236 721.498 739.837 721.077 740.263 720.537C740.69 719.997 740.903 719.377 740.903 718.676C740.903 718.023 740.709 717.473 740.32 717.028C739.942 716.583 739.383 716.205 738.644 715.892C737.915 715.58 737.02 715.295 735.96 715.04L732.792 714.244C730.339 713.648 728.403 712.715 726.982 711.446C725.562 710.177 724.856 708.468 724.866 706.318C724.856 704.557 725.325 703.018 726.272 701.702C727.228 700.385 728.54 699.358 730.207 698.619C731.873 697.881 733.767 697.511 735.888 697.511C738.048 697.511 739.932 697.881 741.542 698.619C743.161 699.358 744.421 700.385 745.32 701.702C746.22 703.018 746.684 704.543 746.712 706.276H740.817ZM760.505 727V697.909H771.982C774.179 697.909 776.054 698.302 777.607 699.088C779.17 699.865 780.358 700.968 781.173 702.398C781.996 703.818 782.408 705.49 782.408 707.412C782.408 709.344 781.992 711.006 781.158 712.398C780.325 713.78 779.118 714.841 777.536 715.58C775.964 716.318 774.061 716.688 771.826 716.688H764.141V711.744H770.832C772.006 711.744 772.981 711.583 773.758 711.261C774.534 710.939 775.112 710.456 775.491 709.812C775.879 709.169 776.073 708.368 776.073 707.412C776.073 706.446 775.879 705.632 775.491 704.969C775.112 704.306 774.53 703.804 773.744 703.463C772.967 703.113 771.987 702.938 770.803 702.938H766.656V727H760.505ZM776.215 713.761L783.445 727H776.656L769.582 713.761H776.215ZM796.148 727.426C793.941 727.426 792.033 726.957 790.423 726.02C788.823 725.073 787.587 723.757 786.716 722.071C785.845 720.376 785.409 718.411 785.409 716.176C785.409 713.922 785.845 711.953 786.716 710.267C787.587 708.572 788.823 707.256 790.423 706.318C792.033 705.371 793.941 704.898 796.148 704.898C798.354 704.898 800.258 705.371 801.858 706.318C803.468 707.256 804.708 708.572 805.58 710.267C806.451 711.953 806.886 713.922 806.886 716.176C806.886 718.411 806.451 720.376 805.58 722.071C804.708 723.757 803.468 725.073 801.858 726.02C800.258 726.957 798.354 727.426 796.148 727.426ZM796.176 722.739C797.18 722.739 798.018 722.455 798.69 721.886C799.363 721.309 799.869 720.523 800.21 719.528C800.561 718.534 800.736 717.402 800.736 716.134C800.736 714.865 800.561 713.733 800.21 712.739C799.869 711.744 799.363 710.958 798.69 710.381C798.018 709.803 797.18 709.514 796.176 709.514C795.163 709.514 794.311 709.803 793.619 710.381C792.938 710.958 792.421 711.744 792.071 712.739C791.73 713.733 791.56 714.865 791.56 716.134C791.56 717.402 791.73 718.534 792.071 719.528C792.421 720.523 792.938 721.309 793.619 721.886C794.311 722.455 795.163 722.739 796.176 722.739ZM824.812 717.71V705.182H830.864V727H825.054V723.037H824.827C824.334 724.315 823.515 725.343 822.369 726.119C821.233 726.896 819.846 727.284 818.207 727.284C816.749 727.284 815.466 726.953 814.358 726.29C813.25 725.627 812.384 724.685 811.759 723.463C811.143 722.241 810.83 720.778 810.821 719.074V705.182H816.872V717.994C816.882 719.282 817.227 720.3 817.909 721.048C818.591 721.796 819.505 722.17 820.651 722.17C821.38 722.17 822.062 722.005 822.696 721.673C823.33 721.332 823.842 720.83 824.23 720.168C824.628 719.505 824.822 718.686 824.812 717.71ZM847.309 705.182V709.727H834.17V705.182H847.309ZM837.153 699.955H843.204V720.295C843.204 720.854 843.289 721.29 843.46 721.602C843.63 721.905 843.867 722.118 844.17 722.241C844.482 722.365 844.842 722.426 845.249 722.426C845.533 722.426 845.817 722.402 846.102 722.355C846.386 722.298 846.603 722.256 846.755 722.227L847.707 726.73C847.404 726.825 846.978 726.934 846.428 727.057C845.879 727.189 845.211 727.27 844.425 727.298C842.967 727.355 841.689 727.161 840.59 726.716C839.501 726.271 838.654 725.58 838.048 724.642C837.442 723.705 837.143 722.521 837.153 721.091V699.955ZM860.96 727.426C858.715 727.426 856.783 726.972 855.164 726.062C853.554 725.144 852.314 723.847 851.442 722.17C850.571 720.485 850.136 718.491 850.136 716.19C850.136 713.946 850.571 711.976 851.442 710.281C852.314 708.586 853.54 707.265 855.121 706.318C856.712 705.371 858.578 704.898 860.718 704.898C862.157 704.898 863.497 705.13 864.738 705.594C865.988 706.048 867.077 706.735 868.005 707.653C868.942 708.572 869.672 709.727 870.192 711.119C870.713 712.502 870.974 714.121 870.974 715.977V717.639H852.55V713.889H865.278C865.278 713.018 865.088 712.246 864.71 711.574C864.331 710.902 863.805 710.376 863.133 709.997C862.47 709.609 861.698 709.415 860.817 709.415C859.899 709.415 859.085 709.628 858.374 710.054C857.674 710.471 857.124 711.034 856.727 711.744C856.329 712.445 856.125 713.226 856.116 714.088V717.653C856.116 718.733 856.315 719.666 856.712 720.452C857.12 721.238 857.692 721.844 858.431 722.27C859.17 722.696 860.046 722.909 861.059 722.909C861.731 722.909 862.347 722.814 862.906 722.625C863.464 722.436 863.942 722.152 864.34 721.773C864.738 721.394 865.041 720.93 865.249 720.381L870.846 720.75C870.562 722.095 869.979 723.269 869.099 724.273C868.228 725.267 867.101 726.044 865.718 726.602C864.345 727.152 862.759 727.426 860.96 727.426ZM885.491 727.398C883.483 727.398 881.693 727.028 880.121 726.29C878.559 725.551 877.318 724.533 876.4 723.236C875.481 721.938 875.003 720.452 874.965 718.776H880.931C880.997 719.902 881.471 720.816 882.352 721.517C883.232 722.218 884.279 722.568 885.491 722.568C886.457 722.568 887.309 722.355 888.048 721.929C888.796 721.493 889.378 720.892 889.795 720.125C890.221 719.348 890.434 718.458 890.434 717.455C890.434 716.432 890.216 715.532 889.781 714.756C889.354 713.979 888.763 713.373 888.005 712.938C887.247 712.502 886.381 712.279 885.406 712.27C884.553 712.27 883.725 712.445 882.92 712.795C882.124 713.146 881.504 713.624 881.059 714.23L875.59 713.25L876.968 697.909H894.752V702.938H882.039L881.286 710.224H881.457C881.968 709.505 882.74 708.908 883.772 708.435C884.804 707.961 885.96 707.724 887.238 707.724C888.99 707.724 890.552 708.136 891.925 708.96C893.299 709.784 894.383 710.916 895.178 712.355C895.974 713.785 896.367 715.433 896.357 717.298C896.367 719.259 895.912 721.001 894.994 722.526C894.085 724.041 892.811 725.234 891.173 726.105C889.544 726.967 887.65 727.398 885.491 727.398ZM911.4 727.398C909.279 727.398 907.389 727.033 905.732 726.304C904.085 725.565 902.782 724.552 901.826 723.264C900.879 721.967 900.391 720.471 900.363 718.776H906.556C906.594 719.486 906.826 720.111 907.252 720.651C907.688 721.181 908.265 721.593 908.985 721.886C909.705 722.18 910.514 722.327 911.414 722.327C912.352 722.327 913.18 722.161 913.9 721.83C914.62 721.498 915.183 721.039 915.59 720.452C915.997 719.865 916.201 719.187 916.201 718.42C916.201 717.644 915.983 716.957 915.548 716.361C915.121 715.755 914.506 715.281 913.701 714.94C912.906 714.599 911.959 714.429 910.86 714.429H908.147V709.912H910.86C911.788 709.912 912.607 709.751 913.317 709.429C914.037 709.107 914.596 708.662 914.994 708.094C915.391 707.516 915.59 706.844 915.59 706.077C915.59 705.348 915.415 704.708 915.065 704.159C914.724 703.6 914.241 703.165 913.616 702.852C913 702.54 912.281 702.384 911.457 702.384C910.623 702.384 909.861 702.535 909.17 702.838C908.478 703.132 907.924 703.553 907.508 704.102C907.091 704.652 906.869 705.295 906.84 706.034H900.945C900.974 704.358 901.452 702.881 902.38 701.602C903.308 700.324 904.558 699.325 906.13 698.605C907.711 697.876 909.496 697.511 911.485 697.511C913.493 697.511 915.249 697.876 916.755 698.605C918.261 699.334 919.43 700.319 920.263 701.56C921.106 702.791 921.523 704.173 921.513 705.707C921.523 707.336 921.016 708.695 919.994 709.784C918.98 710.873 917.659 711.564 916.031 711.858V712.085C918.171 712.36 919.799 713.103 920.917 714.315C922.044 715.518 922.603 717.024 922.593 718.832C922.603 720.49 922.124 721.962 921.158 723.25C920.202 724.538 918.881 725.551 917.195 726.29C915.51 727.028 913.578 727.398 911.4 727.398Z" fill="#7847D4"/>
<g clip-path="url(#clip6_406_52)">
<path d="M915 418H665V668H915V418Z" fill="url(#paint4_linear_406_52)"/>
<path fill-rule="evenodd" clip-rule="evenodd" d="M817.163 545.123C819.472 547.259 820.628 550.119 820.628 553.711C820.628 557.619 819.222 560.739 816.412 563.071C813.6 565.406 809.822 566.572 805.081 566.572C801.334 566.572 797.625 565.772 793.956 564.178V559.391C798.303 560.829 802.009 561.545 805.081 561.545C808.113 561.545 810.444 560.867 812.078 559.513C813.712 558.157 814.528 556.221 814.528 553.711C814.528 548.884 811.481 546.471 805.378 546.471C803.466 546.471 801.572 546.571 799.697 546.768V542.823L812.259 529.12H794.556V524.215H818.897V528.942L806.575 541.985C806.778 541.944 806.972 541.925 807.175 541.925H807.772C811.722 541.925 814.85 542.991 817.163 545.123ZM782.419 544.079C784.847 546.352 786.063 549.481 786.063 553.467C786.063 557.378 784.65 560.539 781.816 562.952C778.984 565.366 775.259 566.572 770.634 566.572C766.572 566.572 762.763 565.772 759.213 564.178V559.391C763.638 560.829 767.425 561.545 770.575 561.545C773.606 561.545 775.928 560.861 777.541 559.482C779.156 558.107 779.966 556.125 779.966 553.53C779.966 550.697 779.206 548.644 777.691 547.368C776.175 546.093 773.703 545.452 770.275 545.452C767.803 545.452 764.716 545.655 761.006 546.052V542.104L762.144 524.215H783.972V529.12H767.166L766.388 541.266C768.581 540.869 770.553 540.669 772.306 540.669C776.613 540.669 779.984 541.803 782.419 544.079ZM827.366 587.931C812.197 590.657 798.912 596.834 790 601.867C781.084 596.834 767.8 590.657 752.634 587.931C748.366 587.165 727.091 582.722 727.091 570.424C727.091 564.725 729.131 560.945 733.05 554.196C737.731 546.124 743.556 536.076 743.556 521.611C743.556 511.273 740.847 501.36 735.497 492.109C736.125 491.334 736.766 490.549 737.409 489.758C745.334 493.719 753.584 495.726 761.972 495.726C772.222 495.726 781.641 493.035 790 487.723C798.356 493.035 807.775 495.726 818.025 495.726C826.412 495.726 834.666 493.719 842.591 489.758C843.231 490.549 843.872 491.334 844.5 492.109C839.15 501.36 836.441 511.273 836.441 521.611C836.441 536.076 842.266 546.124 846.956 554.208C850.866 560.945 852.906 564.725 852.906 570.424C852.906 582.722 831.631 587.165 827.366 587.931ZM842.691 521.611C842.691 511.742 845.475 502.282 850.959 493.494C851.672 492.359 851.581 490.9 850.731 489.862C849.144 487.917 847.478 485.869 845.834 483.834C844.881 482.656 843.225 482.331 841.894 483.062C834.197 487.317 826.169 489.474 818.025 489.474C808.2 489.474 799.616 486.832 791.778 481.402C790.709 480.661 789.288 480.661 788.219 481.402C780.381 486.832 771.797 489.474 761.972 489.474C753.828 489.474 745.8 487.317 738.103 483.062C736.775 482.331 735.116 482.656 734.162 483.834C732.519 485.869 730.853 487.917 729.266 489.862C728.419 490.9 728.325 492.359 729.038 493.494C734.525 502.282 737.306 511.742 737.306 521.611C737.306 534.394 731.947 543.632 727.641 551.066C723.422 558.325 720.841 563.146 720.841 570.424C720.841 587.265 744.328 592.795 751.528 594.086C766.716 596.815 779.978 603.252 788.428 608.17C788.913 608.454 789.456 608.595 790 608.595C790.541 608.595 791.084 608.454 791.572 608.17C800.022 603.252 813.281 596.815 828.469 594.086C835.669 592.795 859.156 587.265 859.156 570.424C859.156 563.146 856.575 558.325 852.356 551.057C848.05 543.632 842.691 534.394 842.691 521.611ZM830.606 605.991C811.447 609.436 795.384 619.74 790 623.513C784.613 619.74 768.55 609.436 749.391 605.991C711.678 599.216 708.75 577.054 708.75 570.424C708.75 559.516 713.034 552.136 717.178 544.992C721.128 538.186 725.212 531.146 725.212 521.611C725.212 506.549 716.516 495.911 712.225 491.581C716.738 486.091 728.138 472.192 733.759 464.949C742.278 472.99 752.181 477.376 761.972 477.376C772.841 477.376 781.828 472.952 790 463.514C798.169 472.952 807.156 477.376 818.025 477.376C827.816 477.376 837.719 472.99 846.241 464.949C851.863 472.192 863.259 486.091 867.772 491.581C863.481 495.911 854.784 506.549 854.784 521.611C854.784 531.146 858.872 538.186 862.819 544.992C866.966 552.136 871.25 559.516 871.25 570.424C871.25 577.054 868.319 599.216 830.606 605.991ZM868.225 541.857C864.366 535.204 861.034 529.461 861.034 521.611C861.034 505.086 873.897 494.398 874.022 494.298C874.669 493.773 875.081 493.01 875.169 492.178C875.25 491.347 875 490.518 874.469 489.874C874.259 489.624 853.775 464.79 849.081 458.356C848.531 457.602 847.678 457.133 846.747 457.077C845.813 457.008 844.913 457.38 844.275 458.062C836.4 466.484 827.081 471.123 818.025 471.123C808.012 471.123 800.137 466.662 792.481 456.658C791.297 455.114 788.703 455.114 787.519 456.658C779.859 466.662 771.984 471.123 761.972 471.123C752.916 471.123 743.597 466.484 735.722 458.062C735.084 457.38 734.178 456.993 733.25 457.077C732.322 457.133 731.466 457.602 730.916 458.356C726.222 464.79 705.737 489.624 705.528 489.874C705 490.518 704.75 491.347 704.834 492.175C704.916 493.003 705.325 493.766 705.969 494.291C706.1 494.398 718.962 505.086 718.962 521.611C718.962 529.461 715.631 535.204 711.772 541.857C707.425 549.347 702.5 557.835 702.5 570.424C702.5 591.397 719.616 606.994 748.288 612.146C769.872 616.026 787.919 629.715 788.097 629.856C788.656 630.284 789.328 630.5 790 630.5C790.669 630.5 791.341 630.284 791.903 629.853C792.084 629.715 810.069 616.035 831.709 612.146C860.381 606.994 877.5 591.397 877.5 570.424C877.5 557.835 872.572 549.347 868.225 541.857Z" fill="white"/>
</g>
<path d="M1013.78 727H1007.19L1017.23 697.909H1025.15L1035.18 727H1028.59L1021.31 704.557H1021.08L1013.78 727ZM1013.37 715.565H1028.93V720.366H1013.37V715.565ZM1042.3 727L1033.98 697.909H1040.7L1045.51 718.122H1045.75L1051.07 697.909H1056.82L1062.12 718.165H1062.37L1067.19 697.909H1073.91L1065.58 727H1059.59L1054.05 707.98H1053.82L1048.3 727H1042.3ZM1092.71 706.276C1092.59 705.13 1092.11 704.24 1091.25 703.605C1090.38 702.971 1089.21 702.653 1087.74 702.653C1086.73 702.653 1085.89 702.795 1085.19 703.08C1084.5 703.354 1083.97 703.738 1083.6 704.23C1083.24 704.723 1083.06 705.281 1083.06 705.906C1083.04 706.427 1083.15 706.882 1083.39 707.27C1083.64 707.658 1083.97 707.994 1084.4 708.278C1084.82 708.553 1085.32 708.795 1085.88 709.003C1086.43 709.202 1087.03 709.372 1087.67 709.514L1090.28 710.139C1091.55 710.423 1092.71 710.802 1093.77 711.276C1094.83 711.749 1095.75 712.331 1096.53 713.023C1097.31 713.714 1097.91 714.528 1098.33 715.466C1098.77 716.403 1098.99 717.478 1099 718.69C1098.99 720.471 1098.54 722.014 1097.64 723.321C1096.75 724.618 1095.46 725.627 1093.77 726.347C1092.1 727.057 1090.08 727.412 1087.71 727.412C1085.36 727.412 1083.31 727.052 1081.57 726.332C1079.84 725.613 1078.48 724.547 1077.51 723.136C1076.54 721.716 1076.04 719.959 1075.99 717.866H1081.94C1082.01 718.842 1082.29 719.656 1082.78 720.31C1083.28 720.954 1083.95 721.441 1084.78 721.773C1085.62 722.095 1086.58 722.256 1087.64 722.256C1088.68 722.256 1089.58 722.104 1090.35 721.801C1091.13 721.498 1091.73 721.077 1092.15 720.537C1092.58 719.997 1092.79 719.377 1092.79 718.676C1092.79 718.023 1092.6 717.473 1092.21 717.028C1091.83 716.583 1091.27 716.205 1090.53 715.892C1089.81 715.58 1088.91 715.295 1087.85 715.04L1084.68 714.244C1082.23 713.648 1080.29 712.715 1078.87 711.446C1077.45 710.177 1076.75 708.468 1076.76 706.318C1076.75 704.557 1077.22 703.018 1078.16 701.702C1079.12 700.385 1080.43 699.358 1082.1 698.619C1083.76 697.881 1085.66 697.511 1087.78 697.511C1089.94 697.511 1091.82 697.881 1093.43 698.619C1095.05 699.358 1096.31 700.385 1097.21 701.702C1098.11 703.018 1098.57 704.543 1098.6 706.276H1092.71ZM1117.65 697.909L1124.68 720.011H1124.95L1132 697.909H1138.82L1128.79 727H1120.86L1110.82 697.909H1117.65ZM1142.32 727V697.909H1153.79C1156 697.909 1157.88 698.33 1159.43 699.173C1160.99 700.007 1162.17 701.167 1162.99 702.653C1163.81 704.131 1164.22 705.835 1164.22 707.767C1164.22 709.699 1163.8 711.403 1162.97 712.881C1162.14 714.358 1160.93 715.509 1159.35 716.332C1157.78 717.156 1155.87 717.568 1153.64 717.568H1146.32V712.639H1152.64C1153.83 712.639 1154.8 712.436 1155.57 712.028C1156.35 711.612 1156.92 711.039 1157.3 710.31C1157.69 709.571 1157.89 708.723 1157.89 707.767C1157.89 706.801 1157.69 705.958 1157.3 705.239C1156.92 704.509 1156.35 703.946 1155.57 703.548C1154.79 703.141 1153.81 702.938 1152.62 702.938H1148.47V727H1142.32ZM1193.88 708.094H1187.66C1187.55 707.289 1187.32 706.574 1186.97 705.949C1186.62 705.314 1186.17 704.775 1185.62 704.33C1185.07 703.884 1184.43 703.544 1183.71 703.307C1183 703.07 1182.23 702.952 1181.4 702.952C1179.89 702.952 1178.58 703.326 1177.46 704.074C1176.35 704.812 1175.48 705.892 1174.86 707.312C1174.25 708.723 1173.94 710.437 1173.94 712.455C1173.94 714.528 1174.25 716.271 1174.86 717.682C1175.49 719.093 1176.36 720.158 1177.48 720.878C1178.59 721.598 1179.89 721.957 1181.36 721.957C1182.18 721.957 1182.94 721.848 1183.64 721.631C1184.35 721.413 1184.98 721.096 1185.53 720.679C1186.08 720.253 1186.54 719.737 1186.89 719.131C1187.26 718.525 1187.52 717.833 1187.66 717.057L1193.88 717.085C1193.72 718.42 1193.32 719.708 1192.68 720.949C1192.04 722.18 1191.18 723.283 1190.11 724.259C1189.04 725.224 1187.76 725.991 1186.27 726.56C1184.79 727.118 1183.12 727.398 1181.26 727.398C1178.66 727.398 1176.34 726.811 1174.3 725.636C1172.26 724.462 1170.65 722.762 1169.47 720.537C1168.29 718.312 1167.7 715.617 1167.7 712.455C1167.7 709.282 1168.3 706.583 1169.49 704.358C1170.69 702.133 1172.31 700.437 1174.35 699.273C1176.4 698.098 1178.7 697.511 1181.26 697.511C1182.94 697.511 1184.5 697.748 1185.94 698.222C1187.39 698.695 1188.68 699.386 1189.79 700.295C1190.91 701.195 1191.82 702.298 1192.52 703.605C1193.23 704.912 1193.68 706.408 1193.88 708.094Z" fill="#7847D4"/>
<g clip-path="url(#clip7_406_52)">
<path d="M1227 418H977V668H1227V418Z" fill="url(#paint5_linear_406_52)"/>
<path fill-rule="evenodd" clip-rule="evenodd" d="M1167.62 547.287L1150.44 540.412V602.758C1155.46 602.258 1159.5 600.608 1162.38 597.69C1167.69 592.29 1167.63 584.374 1167.62 584.296V547.287ZM1144.19 602.799V540.412L1127 547.287V584.233C1127.02 584.88 1127.73 600.974 1144.19 602.799ZM1173.88 584.233C1173.88 584.587 1174.04 594.693 1166.89 602.015C1162.22 606.805 1155.63 609.233 1147.31 609.233C1126.77 609.233 1120.95 592.927 1120.75 584.308V545.171C1120.75 543.893 1121.53 542.743 1122.72 542.268L1146.15 532.893C1146.9 532.596 1147.73 532.596 1148.47 532.893L1171.91 542.268C1173.1 542.743 1173.88 543.893 1173.88 545.171V584.233ZM1183.25 578.09L1183.25 536.349L1147.31 521.974L1111.38 536.349V577.983C1111.37 578.268 1110.95 597.446 1122.42 609.246C1128.46 615.458 1136.83 618.608 1147.31 618.608C1157.87 618.608 1166.28 615.437 1172.33 609.183C1183.78 597.333 1183.26 578.28 1183.25 578.09ZM1176.82 613.524C1169.55 621.046 1159.63 624.858 1147.31 624.858C1135.06 624.858 1125.17 621.058 1117.91 613.565C1104.6 599.837 1105.1 578.774 1105.12 577.887V534.233C1105.12 532.955 1105.9 531.805 1107.09 531.33L1146.15 515.705C1146.9 515.408 1147.73 515.408 1148.47 515.705L1187.53 531.33C1188.72 531.805 1189.5 532.955 1189.5 534.233V577.983C1189.53 578.765 1190.09 599.79 1176.82 613.524ZM1049.05 565.483H1095.75V571.733H1049.05C1030.05 571.733 1015.55 559.071 1014.58 541.624C1014.51 540.912 1014.5 540.08 1014.5 539.249C1014.5 517.783 1029.51 509.88 1038.26 507.099C1038.2 506.096 1038.17 505.08 1038.17 504.058C1038.17 487.018 1050.33 469.19 1066.44 462.59C1085.37 454.84 1105.32 458.593 1119.8 472.612C1124.67 477.365 1128.39 482.44 1131.08 488.03C1134.85 484.796 1139.4 483.058 1144.28 483.058C1154.61 483.058 1165.53 491.165 1167.41 506.693C1174.23 508.412 1182.79 512.062 1188.84 519.812L1183.91 523.655C1178.34 516.512 1169.94 513.537 1163.87 512.293C1162.48 512.012 1161.46 510.83 1161.38 509.418C1160.57 495.602 1151.94 489.308 1144.28 489.308C1139.71 489.308 1135.66 491.465 1132.56 495.543C1131.87 496.455 1130.75 496.927 1129.61 496.746C1128.48 496.574 1127.53 495.802 1127.14 494.73C1124.74 488.199 1120.92 482.43 1115.44 477.096C1102.81 464.865 1085.36 461.599 1068.81 468.374C1054.91 474.068 1044.42 489.408 1044.42 504.058C1044.42 505.749 1044.52 507.421 1044.71 509.024C1044.9 510.59 1043.89 512.052 1042.36 512.433C1034.29 514.43 1020.75 520.574 1020.75 539.249C1020.75 539.88 1020.74 540.515 1020.81 541.149C1021.6 555.299 1033.48 565.483 1049.05 565.483Z" fill="white"/>
</g>
<path d="M1300.9 707.312C1300.71 706.621 1300.43 706.01 1300.07 705.48C1299.71 704.94 1299.27 704.486 1298.75 704.116C1298.23 703.738 1297.65 703.449 1296.98 703.25C1296.33 703.051 1295.61 702.952 1294.81 702.952C1293.32 702.952 1292.02 703.321 1290.89 704.06C1289.77 704.798 1288.9 705.873 1288.28 707.284C1287.65 708.686 1287.34 710.4 1287.34 712.426C1287.34 714.453 1287.65 716.176 1288.26 717.597C1288.88 719.017 1289.75 720.101 1290.88 720.849C1292 721.588 1293.33 721.957 1294.87 721.957C1296.26 721.957 1297.45 721.711 1298.43 721.219C1299.43 720.717 1300.18 720.011 1300.71 719.102C1301.24 718.193 1301.5 717.118 1301.5 715.878L1302.75 716.062H1295.25V711.432H1307.42V715.097C1307.42 717.653 1306.88 719.85 1305.8 721.688C1304.73 723.515 1303.24 724.926 1301.34 725.92C1299.45 726.905 1297.28 727.398 1294.84 727.398C1292.11 727.398 1289.72 726.796 1287.65 725.594C1285.59 724.382 1283.98 722.663 1282.82 720.438C1281.68 718.203 1281.1 715.551 1281.1 712.483C1281.1 710.125 1281.44 708.023 1282.13 706.176C1282.82 704.32 1283.78 702.748 1285.02 701.46C1286.26 700.172 1287.71 699.192 1289.36 698.52C1291 697.848 1292.79 697.511 1294.71 697.511C1296.36 697.511 1297.89 697.753 1299.31 698.236C1300.73 698.709 1301.99 699.382 1303.09 700.253C1304.2 701.124 1305.1 702.161 1305.8 703.364C1306.51 704.557 1306.96 705.873 1307.15 707.312H1300.9ZM1313.3 727V705.182H1319.35V727H1313.3ZM1316.34 702.369C1315.44 702.369 1314.67 702.071 1314.02 701.474C1313.39 700.868 1313.07 700.144 1313.07 699.301C1313.07 698.468 1313.39 697.753 1314.02 697.156C1314.67 696.55 1315.44 696.247 1316.34 696.247C1317.24 696.247 1318 696.55 1318.64 697.156C1319.28 697.753 1319.6 698.468 1319.6 699.301C1319.6 700.144 1319.28 700.868 1318.64 701.474C1318 702.071 1317.24 702.369 1316.34 702.369ZM1335.8 705.182V709.727H1322.66V705.182H1335.8ZM1325.64 699.955H1331.7V720.295C1331.7 720.854 1331.78 721.29 1331.95 721.602C1332.12 721.905 1332.36 722.118 1332.66 722.241C1332.97 722.365 1333.33 722.426 1333.74 722.426C1334.03 722.426 1334.31 722.402 1334.59 722.355C1334.88 722.298 1335.1 722.256 1335.25 722.227L1336.2 726.73C1335.9 726.825 1335.47 726.934 1334.92 727.057C1334.37 727.189 1333.7 727.27 1332.92 727.298C1331.46 727.355 1330.18 727.161 1329.08 726.716C1327.99 726.271 1327.15 725.58 1326.54 724.642C1325.93 723.705 1325.64 722.521 1325.64 721.091V699.955ZM1340.33 727V697.909H1346.48V709.912H1358.96V697.909H1365.1V727H1358.96V714.983H1346.48V727H1340.33ZM1384.05 717.71V705.182H1390.1V727H1384.29V723.037H1384.06C1383.57 724.315 1382.75 725.343 1381.6 726.119C1380.47 726.896 1379.08 727.284 1377.44 727.284C1375.98 727.284 1374.7 726.953 1373.59 726.29C1372.48 725.627 1371.62 724.685 1370.99 723.463C1370.38 722.241 1370.06 720.778 1370.06 719.074V705.182H1376.11V717.994C1376.12 719.282 1376.46 720.3 1377.14 721.048C1377.83 721.796 1378.74 722.17 1379.88 722.17C1380.61 722.17 1381.3 722.005 1381.93 721.673C1382.56 721.332 1383.08 720.83 1383.46 720.168C1383.86 719.505 1384.06 718.686 1384.05 717.71ZM1395.05 727V697.909H1401.1V708.847H1401.29C1401.55 708.259 1401.94 707.663 1402.44 707.057C1402.95 706.441 1403.61 705.93 1404.43 705.523C1405.25 705.106 1406.27 704.898 1407.5 704.898C1409.09 704.898 1410.55 705.314 1411.9 706.148C1413.24 706.972 1414.32 708.217 1415.12 709.884C1415.93 711.541 1416.33 713.619 1416.33 716.119C1416.33 718.553 1415.94 720.608 1415.15 722.284C1414.37 723.951 1413.31 725.215 1411.97 726.077C1410.63 726.929 1409.14 727.355 1407.48 727.355C1406.31 727.355 1405.31 727.161 1404.48 726.773C1403.67 726.384 1403 725.897 1402.48 725.31C1401.96 724.713 1401.56 724.112 1401.29 723.506H1401.02V727H1395.05ZM1400.98 716.091C1400.98 717.388 1401.16 718.52 1401.51 719.486C1401.87 720.452 1402.4 721.205 1403.08 721.744C1403.76 722.275 1404.59 722.54 1405.56 722.54C1406.55 722.54 1407.38 722.27 1408.06 721.73C1408.75 721.181 1409.26 720.423 1409.61 719.457C1409.97 718.482 1410.15 717.36 1410.15 716.091C1410.15 714.831 1409.98 713.723 1409.63 712.767C1409.28 711.811 1408.76 711.062 1408.08 710.523C1407.4 709.983 1406.56 709.713 1405.56 709.713C1404.58 709.713 1403.75 709.973 1403.06 710.494C1402.39 711.015 1401.87 711.754 1401.51 712.71C1401.16 713.667 1400.98 714.794 1400.98 716.091ZM1434.75 727H1428.16L1438.21 697.909H1446.13L1456.16 727H1449.57L1442.28 704.557H1442.05L1434.75 727ZM1434.34 715.565H1449.91V720.366H1434.34V715.565ZM1468.39 727.426C1466.16 727.426 1464.23 726.953 1462.62 726.006C1461.02 725.049 1459.79 723.723 1458.93 722.028C1458.08 720.333 1457.65 718.383 1457.65 716.176C1457.65 713.941 1458.08 711.981 1458.94 710.295C1459.82 708.6 1461.05 707.279 1462.65 706.332C1464.25 705.376 1466.16 704.898 1468.36 704.898C1470.26 704.898 1471.93 705.243 1473.36 705.935C1474.79 706.626 1475.92 707.597 1476.76 708.847C1477.59 710.097 1478.05 711.564 1478.13 713.25H1472.42C1472.26 712.161 1471.84 711.285 1471.15 710.622C1470.46 709.95 1469.57 709.614 1468.46 709.614C1467.52 709.614 1466.7 709.869 1466 710.381C1465.31 710.883 1464.77 711.616 1464.38 712.582C1464 713.548 1463.8 714.718 1463.8 716.091C1463.8 717.483 1463.99 718.667 1464.37 719.642C1464.76 720.617 1465.3 721.361 1466 721.872C1466.7 722.384 1467.52 722.639 1468.46 722.639C1469.15 722.639 1469.77 722.497 1470.32 722.213C1470.88 721.929 1471.34 721.517 1471.7 720.977C1472.07 720.428 1472.31 719.77 1472.42 719.003H1478.13C1478.04 720.67 1477.58 722.137 1476.77 723.406C1475.97 724.666 1474.85 725.651 1473.43 726.361C1472.01 727.071 1470.33 727.426 1468.39 727.426ZM1493.61 705.182V709.727H1480.47V705.182H1493.61ZM1483.46 699.955H1489.51V720.295C1489.51 720.854 1489.59 721.29 1489.76 721.602C1489.93 721.905 1490.17 722.118 1490.47 722.241C1490.79 722.365 1491.15 722.426 1491.55 722.426C1491.84 722.426 1492.12 722.402 1492.41 722.355C1492.69 722.298 1492.91 722.256 1493.06 722.227L1494.01 726.73C1493.71 726.825 1493.28 726.934 1492.73 727.057C1492.18 727.189 1491.52 727.27 1490.73 727.298C1489.27 727.355 1487.99 727.161 1486.89 726.716C1485.81 726.271 1484.96 725.58 1484.35 724.642C1483.75 723.705 1483.45 722.521 1483.46 721.091V699.955ZM1497.56 727V705.182H1503.61V727H1497.56ZM1500.6 702.369C1499.7 702.369 1498.92 702.071 1498.28 701.474C1497.65 700.868 1497.33 700.144 1497.33 699.301C1497.33 698.468 1497.65 697.753 1498.28 697.156C1498.92 696.55 1499.7 696.247 1500.6 696.247C1501.49 696.247 1502.26 696.55 1502.9 697.156C1503.54 697.753 1503.86 698.468 1503.86 699.301C1503.86 700.144 1503.54 700.868 1502.9 701.474C1502.26 702.071 1501.49 702.369 1500.6 702.369ZM1518.31 727.426C1516.11 727.426 1514.2 726.957 1512.59 726.02C1510.99 725.073 1509.75 723.757 1508.88 722.071C1508.01 720.376 1507.57 718.411 1507.57 716.176C1507.57 713.922 1508.01 711.953 1508.88 710.267C1509.75 708.572 1510.99 707.256 1512.59 706.318C1514.2 705.371 1516.11 704.898 1518.31 704.898C1520.52 704.898 1522.42 705.371 1524.02 706.318C1525.63 707.256 1526.87 708.572 1527.74 710.267C1528.61 711.953 1529.05 713.922 1529.05 716.176C1529.05 718.411 1528.61 720.376 1527.74 722.071C1526.87 723.757 1525.63 725.073 1524.02 726.02C1522.42 726.957 1520.52 727.426 1518.31 727.426ZM1518.34 722.739C1519.34 722.739 1520.18 722.455 1520.85 721.886C1521.53 721.309 1522.03 720.523 1522.37 719.528C1522.72 718.534 1522.9 717.402 1522.9 716.134C1522.9 714.865 1522.72 713.733 1522.37 712.739C1522.03 711.744 1521.53 710.958 1520.85 710.381C1520.18 709.803 1519.34 709.514 1518.34 709.514C1517.33 709.514 1516.47 709.803 1515.78 710.381C1515.1 710.958 1514.59 711.744 1514.24 712.739C1513.89 713.733 1513.72 714.865 1513.72 716.134C1513.72 717.402 1513.89 718.534 1514.24 719.528C1514.59 720.523 1515.1 721.309 1515.78 721.886C1516.47 722.455 1517.33 722.739 1518.34 722.739ZM1539.04 714.386V727H1532.99V705.182H1538.75V709.031H1539.01C1539.49 707.762 1540.3 706.759 1541.44 706.02C1542.57 705.272 1543.95 704.898 1545.57 704.898C1547.09 704.898 1548.41 705.229 1549.53 705.892C1550.66 706.555 1551.54 707.502 1552.16 708.733C1552.79 709.955 1553.1 711.413 1553.1 713.108V727H1547.05V714.188C1547.06 712.852 1546.72 711.811 1546.02 711.062C1545.33 710.305 1544.38 709.926 1543.17 709.926C1542.36 709.926 1541.64 710.101 1541.01 710.452C1540.4 710.802 1539.91 711.313 1539.56 711.986C1539.22 712.649 1539.05 713.449 1539.04 714.386ZM1576.02 711.403L1570.48 711.744C1570.39 711.271 1570.18 710.845 1569.87 710.466C1569.56 710.078 1569.15 709.77 1568.63 709.543C1568.13 709.306 1567.53 709.188 1566.83 709.188C1565.89 709.188 1565.1 709.386 1564.46 709.784C1563.81 710.172 1563.49 710.693 1563.49 711.347C1563.49 711.867 1563.7 712.308 1564.12 712.668C1564.53 713.027 1565.25 713.316 1566.26 713.534L1570.21 714.33C1572.33 714.765 1573.91 715.466 1574.96 716.432C1576 717.398 1576.52 718.667 1576.52 720.239C1576.52 721.669 1576.1 722.923 1575.25 724.003C1574.42 725.082 1573.28 725.925 1571.82 726.531C1570.37 727.128 1568.7 727.426 1566.8 727.426C1563.91 727.426 1561.61 726.825 1559.9 725.622C1558.19 724.41 1557.2 722.762 1556.9 720.679L1562.85 720.366C1563.03 721.247 1563.47 721.92 1564.16 722.384C1564.85 722.838 1565.74 723.065 1566.82 723.065C1567.88 723.065 1568.73 722.862 1569.37 722.455C1570.03 722.038 1570.36 721.503 1570.37 720.849C1570.36 720.3 1570.13 719.85 1569.67 719.5C1569.22 719.14 1568.52 718.866 1567.57 718.676L1563.79 717.923C1561.66 717.497 1560.07 716.759 1559.03 715.707C1558 714.656 1557.48 713.316 1557.48 711.688C1557.48 710.286 1557.86 709.079 1558.62 708.065C1559.39 707.052 1560.46 706.271 1561.85 705.722C1563.24 705.172 1564.87 704.898 1566.73 704.898C1569.49 704.898 1571.66 705.48 1573.24 706.645C1574.83 707.81 1575.76 709.396 1576.02 711.403Z" fill="#2671E5"/>
<g clip-path="url(#clip8_406_52)">
<path d="M1529 418H1329C1315.19 418 1304 429.193 1304 443V643C1304 656.807 1315.19 668 1329 668H1529C1542.81 668 1554 656.807 1554 643V443C1554 429.193 1542.81 418 1529 418Z" fill="#2671E5"/>
<path d="M1421.44 556.661C1420.46 556.661 1419.51 556.27 1418.81 555.574L1413.27 550.046C1412.92 549.703 1412.63 549.293 1412.44 548.84C1412.24 548.386 1412.14 547.898 1412.13 547.404C1412.13 546.91 1412.22 546.42 1412.41 545.963C1412.59 545.505 1412.87 545.09 1413.22 544.74C1413.57 544.39 1413.98 544.113 1414.44 543.926C1414.89 543.738 1415.38 543.643 1415.88 543.647C1416.37 543.65 1416.86 543.752 1417.32 543.946C1417.77 544.141 1418.18 544.423 1418.52 544.778L1421.44 547.688L1430.23 538.908C1430.93 538.209 1431.87 537.816 1432.86 537.816C1433.85 537.815 1434.79 538.206 1435.49 538.904C1436.19 539.602 1436.58 540.548 1436.58 541.535C1436.58 542.523 1436.19 543.47 1435.5 544.168L1424.07 555.574C1423.37 556.269 1422.43 556.659 1421.44 556.661ZM1491.03 555.567L1502.44 544.168C1503.12 543.467 1503.5 542.527 1503.49 541.551C1503.48 540.576 1503.09 539.643 1502.4 538.953C1501.71 538.263 1500.78 537.872 1499.8 537.864C1498.83 537.855 1497.89 538.23 1497.18 538.908L1488.4 547.688L1485.48 544.778C1485.14 544.423 1484.73 544.141 1484.27 543.946C1483.82 543.752 1483.33 543.65 1482.84 543.647C1482.34 543.643 1481.85 543.738 1481.39 543.926C1480.94 544.113 1480.52 544.39 1480.17 544.74C1479.83 545.09 1479.55 545.505 1479.36 545.963C1479.18 546.42 1479.08 546.91 1479.09 547.404C1479.09 547.898 1479.2 548.386 1479.39 548.84C1479.59 549.293 1479.87 549.703 1480.23 550.046L1485.78 555.574C1486.12 555.921 1486.53 556.196 1486.98 556.383C1487.43 556.57 1487.92 556.666 1488.41 556.666C1488.89 556.665 1489.38 556.567 1489.83 556.379C1490.28 556.19 1490.69 555.914 1491.03 555.567ZM1373.4 509.161L1392.42 497.368C1393.5 496.703 1394.38 495.776 1395 494.673C1395.62 493.571 1395.94 492.33 1395.95 491.067C1395.95 489.804 1395.64 488.56 1395.03 487.453C1394.42 486.347 1393.54 485.413 1392.47 484.741L1373.44 472.762C1372.32 472.053 1371.02 471.659 1369.69 471.62C1368.36 471.582 1367.05 471.9 1365.88 472.543C1364.72 473.186 1363.75 474.129 1363.07 475.275C1362.39 476.42 1362.04 477.726 1362.04 479.057V502.836C1362.04 504.161 1362.39 505.462 1363.07 506.604C1363.74 507.745 1364.7 508.687 1365.86 509.332C1367.02 509.976 1368.33 510.3 1369.65 510.27C1370.98 510.24 1372.27 509.857 1373.4 509.161ZM1388.5 491.036L1369.48 502.836V479.057L1388.5 491.036ZM1518.29 546.72C1518.29 561.08 1506.6 572.762 1492.24 572.762C1485.99 572.75 1479.95 570.489 1475.22 566.39C1470.49 562.292 1467.4 556.631 1466.5 550.44H1451.02C1450.13 556.631 1447.03 562.292 1442.3 566.39C1437.58 570.489 1431.54 572.75 1425.28 572.762C1419.02 572.751 1412.98 570.491 1408.25 566.392C1403.53 562.294 1400.43 556.632 1399.54 550.44H1395.38C1388.15 550.44 1381.62 547.472 1376.92 542.688V580.202C1376.92 592.509 1386.93 602.524 1399.24 602.524H1399.54C1401.35 589.927 1412.18 580.202 1425.28 580.202C1439.64 580.202 1451.32 591.884 1451.32 606.244C1451.32 620.604 1439.64 632.286 1425.28 632.286C1419.02 632.275 1412.98 630.014 1408.25 625.916C1403.53 621.818 1400.43 616.156 1399.54 609.964H1399.24C1382.82 609.964 1369.48 596.616 1369.48 580.202V527.368C1361.08 525.642 1353.53 521.075 1348.11 514.435C1342.69 507.795 1339.73 499.489 1339.71 490.917C1339.71 470.403 1356.4 453.714 1376.92 453.714C1397.43 453.714 1414.12 470.403 1414.12 490.917C1414.11 500.716 1410.23 510.116 1403.33 517.077C1396.44 524.038 1387.07 528 1377.27 528.104C1378.1 532.3 1380.36 536.079 1383.66 538.795C1386.96 541.512 1391.11 542.998 1395.38 543H1399.54C1401.35 530.403 1412.18 520.679 1425.28 520.679C1431.54 520.689 1437.58 522.95 1442.31 527.048C1447.03 531.146 1450.13 536.809 1451.02 543H1466.5C1467.4 536.809 1470.49 531.148 1475.22 527.05C1479.95 522.952 1485.99 520.691 1492.24 520.679C1506.6 520.679 1518.29 532.36 1518.29 546.72ZM1406.68 606.244C1406.68 616.497 1415.03 624.845 1425.28 624.845C1435.53 624.845 1443.88 616.497 1443.88 606.244C1443.88 595.991 1435.53 587.643 1425.28 587.643C1415.03 587.643 1406.68 595.991 1406.68 606.244ZM1376.92 520.679C1393.33 520.679 1406.68 507.33 1406.68 490.917C1406.68 474.503 1393.33 461.155 1376.92 461.155C1360.5 461.155 1347.15 474.503 1347.15 490.917C1347.15 507.33 1360.5 520.679 1376.92 520.679ZM1443.88 546.72C1443.88 536.467 1435.53 528.119 1425.28 528.119C1415.03 528.119 1406.68 536.467 1406.68 546.72C1406.68 556.973 1415.03 565.321 1425.28 565.321C1435.53 565.321 1443.88 556.973 1443.88 546.72ZM1510.85 546.72C1510.85 536.467 1502.5 528.119 1492.24 528.119C1481.99 528.119 1473.64 536.467 1473.64 546.72C1473.64 556.973 1481.99 565.321 1492.24 565.321C1502.5 565.321 1510.85 556.973 1510.85 546.72ZM1414.12 606.244C1414.12 607.231 1414.51 608.177 1415.21 608.875C1415.91 609.572 1416.85 609.964 1417.84 609.964C1418.83 609.964 1419.77 609.572 1420.47 608.875C1421.17 608.177 1421.56 607.231 1421.56 606.244C1421.56 605.257 1421.17 604.311 1420.47 603.613C1419.77 602.916 1418.83 602.524 1417.84 602.524C1416.85 602.524 1415.91 602.916 1415.21 603.613C1414.51 604.311 1414.12 605.257 1414.12 606.244ZM1429 606.244C1429 607.231 1429.39 608.177 1430.09 608.875C1430.79 609.572 1431.73 609.964 1432.72 609.964C1433.71 609.964 1434.65 609.572 1435.35 608.875C1436.05 608.177 1436.44 607.231 1436.44 606.244C1436.44 605.257 1436.05 604.311 1435.35 603.613C1434.65 602.916 1433.71 602.524 1432.72 602.524C1431.73 602.524 1430.79 602.916 1430.09 603.613C1429.39 604.311 1429 605.257 1429 606.244ZM1518.29 606.244C1518.29 620.604 1506.6 632.286 1492.24 632.286C1485.99 632.273 1479.94 630.01 1475.22 625.909C1470.49 621.808 1467.4 616.143 1466.5 609.949C1466.45 609.957 1466.4 609.987 1466.34 609.987L1462.58 610.113H1462.45C1461.49 610.088 1460.58 609.694 1459.9 609.012C1459.23 608.33 1458.84 607.413 1458.83 606.454C1458.81 605.494 1459.17 604.566 1459.82 603.862C1460.48 603.159 1461.38 602.735 1462.33 602.68L1466.1 602.554C1466.23 602.539 1466.36 602.598 1466.49 602.606C1467.37 596.397 1470.46 590.715 1475.19 586.6C1479.92 582.485 1485.97 580.214 1492.24 580.202C1506.6 580.202 1518.29 591.884 1518.29 606.244ZM1510.85 606.244C1510.85 595.991 1502.5 587.643 1492.24 587.643C1481.99 587.643 1473.64 595.991 1473.64 606.244C1473.64 616.497 1481.99 624.845 1492.24 624.845C1502.5 624.845 1510.85 616.497 1510.85 606.244Z" fill="white" stroke="white" stroke-width="0.00571429"/>
</g>
<defs>
<linearGradient id="paint0_linear_406_52" x1="1027" y1="25050" x2="26027" y2="50" gradientUnits="userSpaceOnUse">
<stop stop-color="#BD0816"/>
<stop offset="1" stop-color="#FF5252"/>
</linearGradient>
<linearGradient id="paint1_linear_406_52" x1="1327" y1="25050" x2="26327" y2="50" gradientUnits="userSpaceOnUse">
<stop stop-color="#C8511B"/>
<stop offset="1" stop-color="#FF9900"/>
</linearGradient>
<linearGradient id="paint2_linear_406_52" x1="50" y1="25418" x2="25050" y2="418" gradientUnits="userSpaceOnUse">
<stop stop-color="#C8511B"/>
<stop offset="1" stop-color="#FF9900"/>
</linearGradient>
<linearGradient id="paint3_linear_406_52" x1="352" y1="25418" x2="25352" y2="418" gradientUnits="userSpaceOnUse">
<stop stop-color="#2E27AD"/>
<stop offset="1" stop-color="#527FFF"/>
</linearGradient>
<linearGradient id="paint4_linear_406_52" x1="665" y1="25418" x2="25665" y2="418" gradientUnits="userSpaceOnUse">
<stop stop-color="#4D27A8"/>
<stop offset="1" stop-color="#A166FF"/>
</linearGradient>
<linearGradient id="paint5_linear_406_52" x1="977" y1="25418" x2="25977" y2="418" gradientUnits="userSpaceOnUse">
<stop stop-color="#4D27A8"/>
<stop offset="1" stop-color="#A166FF"/>
</linearGradient>
<clipPath id="clip0_406_52">
<rect width="250" height="250" fill="white" transform="translate(50 50)"/>
</clipPath>
<clipPath id="clip1_406_52">
<rect width="222.222" height="250" fill="white" transform="translate(754 50)"/>
</clipPath>
<clipPath id="clip2_406_52">
<rect width="250" height="250" fill="white" transform="translate(1027 50)"/>
</clipPath>
<clipPath id="clip3_406_52">
<rect width="250" height="250" fill="white" transform="translate(1327 50)"/>
</clipPath>
<clipPath id="clip4_406_52">
<rect width="250" height="250" fill="white" transform="translate(50 418)"/>
</clipPath>
<clipPath id="clip5_406_52">
<rect width="250" height="250" fill="white" transform="translate(352 418)"/>
</clipPath>
<clipPath id="clip6_406_52">
<rect width="250" height="250" fill="white" transform="translate(665 418)"/>
</clipPath>
<clipPath id="clip7_406_52">
<rect width="250" height="250" fill="white" transform="translate(977 418)"/>
</clipPath>
<clipPath id="clip8_406_52">
<rect width="250" height="250" fill="white" transform="translate(1304 418)"/>
</clipPath>
</defs>
</svg>
